<svg width="49" height="48" viewBox="0 0 49 48" fill="none" xmlns="http://www.w3.org/2000/svg">
<path d="M3.66602 32V38.7C3.66602 42.1794 6.48662 45 9.96602 45H44.616C45.1959 45 45.666 44.5299 45.666 43.95V33.05C45.666 32.4701 45.1959 32 44.616 32H34.116M3.66602 32V4.05C3.66602 3.4701 4.13612 3 4.71602 3H13.116M3.66602 32H5.76602M13.116 3L22.0202 5.3432C22.6022 5.49636 22.9366 6.10633 22.7528 6.67936L19.166 17.8607M13.116 3L5.76602 32M34.116 32L42.5562 28.6061C43.108 28.3842 43.3655 27.7488 43.124 27.2054L39.8029 19.733C39.5633 19.194 38.9269 18.958 38.3939 19.2105L27.291 24.4697M34.116 32H9.44102M9.44102 32H7.34102M9.44102 32L27.291 24.4697M7.34102 32H5.76602M7.34102 32L19.166 17.8607M27.291 24.4697L35.4553 15.3955C35.8652 14.9399 35.7994 14.2314 35.3126 13.8591L28.1112 8.3522C27.656 8.00412 27.0058 8.08526 26.6501 8.53454L21.0566 15.6L19.166 17.8607" stroke="white" stroke-width="2" stroke-linejoin="round"/>
<path d="M24.6653 35.6499H22.0403C21.4604 35.6499 20.9903 36.12 20.9903 36.6999V39.9499C20.9903 40.5298 21.4604 40.9999 22.0403 40.9999H24.6653C25.2452 40.9999 25.7153 40.5298 25.7153 39.9499V36.6999C25.7153 36.12 25.2452 35.6499 24.6653 35.6499Z" stroke="white" stroke-width="1.5" stroke-linejoin="round"/>
<path d="M32.5403 35.6499H29.9153C29.3354 35.6499 28.8653 36.12 28.8653 36.6999V39.9499C28.8653 40.5298 29.3354 40.9999 29.9153 40.9999H32.5403C33.1202 40.9999 33.5903 40.5298 33.5903 39.9499V36.6999C33.5903 36.12 33.1202 35.6499 32.5403 35.6499Z" stroke="white" stroke-width="1.5" stroke-linejoin="round"/>
<path d="M40.4153 35.6499H37.7903C37.2104 35.6499 36.7403 36.12 36.7403 36.6999V39.9499C36.7403 40.5298 37.2104 40.9999 37.7903 40.9999H40.4153C40.9952 40.9999 41.4653 40.5298 41.4653 39.9499V36.6999C41.4653 36.12 40.9952 35.6499 40.4153 35.6499Z" stroke="white" stroke-width="1.5" stroke-linejoin="round"/>
<path d="M7.81641 38.3499C7.81641 39.8135 9.00285 40.9999 10.4664 40.9999C11.93 40.9999 13.1164 39.8135 13.1164 38.3499C13.1164 36.8864 11.93 35.6999 10.4664 35.6999C9.00285 35.6999 7.81641 36.8864 7.81641 38.3499Z" stroke="white" stroke-width="1.5" stroke-linejoin="round"/>
</svg>
