<svg width="49" height="48" viewBox="0 0 49 48" fill="none" xmlns="http://www.w3.org/2000/svg">
<path d="M24.1632 36.0862C24.0701 36.2748 23.9799 36.4247 23.8747 36.5591C23.5021 37.0348 22.9896 37.3818 22.4095 37.551C22.0132 37.6667 21.5646 37.6667 20.6673 37.6667C19.7701 37.6667 19.3214 37.6667 18.9251 37.551C18.345 37.3818 17.8326 37.0348 17.4599 36.5591C17.2054 36.234 17.0388 35.8175 16.7055 34.9844C16.2265 33.7869 14.8971 33.1703 13.6735 33.5782L12.6586 33.9165C11.7976 34.2035 11.3671 34.347 10.9441 34.36C10.4355 34.3757 9.93182 34.2568 9.48395 34.0154C9.11147 33.8145 8.79058 33.4936 8.1488 32.8519C7.50704 32.2101 7.18613 31.8892 6.98529 31.5167C6.74381 31.0688 6.62491 30.5651 6.6406 30.0566C6.65365 29.6336 6.79716 29.2031 7.08417 28.342L7.49854 27.0989C7.86368 26.0035 7.31167 24.8133 6.23956 24.3845C5.19048 23.9648 4.66591 23.755 4.28007 23.4044C3.93914 23.0946 3.67724 22.7077 3.51622 22.2761C3.33398 21.7877 3.33398 21.2171 3.33398 20.0758C3.33398 19.1119 3.33398 18.63 3.47091 18.2013C3.59207 17.8218 3.79039 17.4716 4.0534 17.1725C4.35061 16.8345 4.75977 16.589 5.57809 16.098L6.11256 15.7772C7.28567 15.0732 7.7745 13.6219 7.26638 12.3516C6.94192 11.5405 6.7797 11.1349 6.73822 10.7336C6.6773 10.1439 6.79925 9.54977 7.08753 9.03178C7.28375 8.67921 7.59262 8.37034 8.21036 7.7526C8.79159 7.17138 9.0822 6.88076 9.41415 6.68989C9.90178 6.4095 10.4607 6.27756 11.0222 6.31028C11.4045 6.33255 11.7944 6.46252 12.5742 6.72245L13.6735 7.08874C14.8971 7.49647 16.2265 6.87981 16.7055 5.68227C17.0388 4.8492 17.2054 4.43265 17.4599 4.10761C17.8326 3.63185 18.345 3.28492 18.9251 3.11564C19.3214 3 19.7701 3 20.6673 3C21.5646 3 22.0132 3 22.4095 3.11564C22.9896 3.28492 23.5021 3.63185 23.8747 4.10761C24.1293 4.43265 24.2959 4.84919 24.6291 5.68227C25.1081 6.87977 26.4375 7.49635 27.6611 7.0885L28.7597 6.7223C29.5395 6.46237 29.9294 6.3324 30.3116 6.31013C30.8732 6.27742 31.4321 6.40935 31.9197 6.68974C32.2516 6.88062 32.5423 7.17124 33.1235 7.75245C33.7412 8.3702 34.0501 8.67907 34.2463 9.03164C34.5346 9.54963 34.6565 10.1438 34.5956 10.7334C34.5541 11.1348 34.3919 11.5404 34.0675 12.3515C33.5594 13.6218 34.0482 15.073 35.2214 15.7769L35.7565 16.098C36.5749 16.589 36.984 16.8345 37.2812 17.1725C37.5442 17.4716 37.7426 17.8218 37.8637 18.2013C37.9784 18.5604 37.997 18.9569 38.0001 19.6427M23.8747 25.1398C22.9571 25.7534 21.854 26.1111 20.6673 26.1111C17.4763 26.1111 14.8895 23.5243 14.8895 20.3333C14.8895 17.1424 17.4763 14.5556 20.6673 14.5556C23.6246 14.5556 26.0629 16.7773 26.4042 19.6427" stroke="white" stroke-width="2" stroke-linecap="round" stroke-linejoin="round"/>
<path d="M44.334 20H25.334C24.7817 20 24.334 20.4477 24.334 21V44C24.334 44.5523 24.7817 45 25.334 45H44.334C44.8863 45 45.334 44.5523 45.334 44V21C45.334 20.4477 44.8863 20 44.334 20Z" stroke="white" stroke-width="2"/>
<path d="M28.334 25H32.334" stroke="white" stroke-width="2" stroke-linecap="round"/>
<path d="M28.334 30H40.334" stroke="white" stroke-width="2" stroke-linecap="round"/>
<path d="M28.334 35H35.334" stroke="white" stroke-width="2" stroke-linecap="round"/>
</svg>
