<svg width="250" height="48" viewBox="0 0 250 48" fill="none" xmlns="http://www.w3.org/2000/svg">
<g clip-path="url(#clip0_1021_64098)">
<path d="M93.2211 21.6712L105.987 3.47339H94.4177L84.0455 19.2976H83.6467V3.47339H74.0723V42.6383H83.6467V25.2316H84.0455L95.2157 42.6383H107.184L93.2211 21.6712Z" fill="#234F9C"/>
<path d="M219.68 3.47339V11.3855H229.654V42.2426H239.626V11.3855H249.999V3.47339H219.68Z" fill="#234F9C"/>
<path d="M214.888 33.143C212.893 33.9342 210.499 34.7255 207.706 34.7255C201.723 34.7255 195.739 30.3738 195.739 22.8573C195.739 15.3408 201.723 10.9892 207.308 10.9892C210.499 10.9892 212.494 11.3848 214.489 12.176L216.883 4.2639C212.893 2.68148 210.1 2.28589 205.713 2.28589C194.94 2.28589 185.367 10.5936 185.367 22.4617C185.367 35.9123 195.339 43.0331 206.11 43.0331C210.1 43.0331 213.69 42.2419 217.28 41.0551L214.888 33.143Z" fill="#234F9C"/>
<path d="M121.545 2.68237C117.556 2.68237 113.567 3.07798 109.977 3.47358V42.6384H119.95V28.7923H122.742C134.71 28.7923 139.099 22.4627 139.099 15.7373C139.099 7.82523 132.716 2.68237 121.545 2.68237ZM122.343 21.2759H119.95V10.5945H120.349C121.545 10.5945 122.343 10.5945 123.54 10.5945C127.131 10.5945 129.524 12.9681 129.524 15.7373C129.125 18.5066 127.131 21.2759 122.343 21.2759Z" fill="#234F9C"/>
<path d="M161.842 2.28589C150.273 2.28589 141.098 10.5936 141.098 22.8573C141.098 35.121 150.273 43.4287 161.842 43.4287C173.411 43.4287 182.586 35.121 182.586 22.8573C182.187 10.5936 173.411 2.28589 161.842 2.28589ZM161.842 35.5166C156.257 35.5166 151.869 30.7694 151.869 23.253C151.869 15.3408 156.257 10.9892 161.842 10.9892C167.427 10.9892 171.815 15.7364 171.815 23.253C171.815 30.7694 167.427 35.5166 161.842 35.5166Z" fill="#234F9C"/>
<path d="M35.5623 0H20.1595L0 34.7042L7.70141 48H48.0205L55.7219 34.7042L35.5623 0ZM47.341 46.4225L40.772 34.9294H15.1763L8.60745 46.4225L2.03859 34.9294H15.1763L27.8609 12.8451L21.2922 1.57746H34.6562L28.0873 13.0704L40.772 35.1549H54.1363L47.341 46.4225Z" fill="#234F9C"/>
</g>
<defs>
<clipPath id="clip0_1021_64098">
<rect width="250" height="48" fill="white"/>
</clipPath>
</defs>
</svg>
