<svg width="25" height="24" viewBox="0 0 25 24" fill="none" xmlns="http://www.w3.org/2000/svg">
<path d="M2.63043 24V19.1397L11.456 11.2961C12.0141 10.7821 12.4211 10.3352 12.6769 9.95531C12.956 9.57542 13.1421 9.24022 13.2351 8.94972C13.3281 8.63687 13.3746 8.34637 13.3746 8.07821C13.3746 7.49721 13.1769 7.05028 12.7816 6.73743C12.3862 6.40223 11.7932 6.23464 11.0025 6.23464C10.2816 6.23464 9.59554 6.42458 8.94438 6.80447C8.29322 7.16201 7.78159 7.69832 7.4095 8.41341L1.2002 5.43017C2.08392 3.82123 3.4095 2.51397 5.17694 1.50838C6.94438 0.502793 9.14206 0 11.77 0C13.7002 0 15.4095 0.301676 16.8979 0.905028C18.3862 1.50838 19.549 2.35754 20.3862 3.45251C21.2234 4.54749 21.6421 5.84358 21.6421 7.34078C21.6421 8.10056 21.5374 8.86034 21.3281 9.62011C21.1421 10.3799 20.7467 11.1844 20.1421 12.0335C19.5374 12.8603 18.6421 13.7877 17.456 14.8156L10.8281 20.6145L9.5374 17.8659H22.2002V24H2.63043Z" fill="#C7C7C7"/>
</svg>
