<svg width="25" height="24" viewBox="0 0 25 24" fill="none" xmlns="http://www.w3.org/2000/svg">
<path d="M11.3731 24C9.76233 24 8.12923 23.8212 6.47374 23.4637C4.81826 23.1061 3.36412 22.581 2.11133 21.8883L4.79589 16.0559C5.8026 16.6369 6.85406 17.0726 7.95025 17.3631C9.06882 17.6313 10.1203 17.7654 11.1046 17.7654C11.9995 17.7654 12.7265 17.6201 13.2858 17.3296C13.8675 17.0168 14.1583 16.5587 14.1583 15.9553C14.1583 15.4413 13.9458 15.0503 13.5207 14.7821C13.0957 14.4916 12.3798 14.3464 11.3731 14.3464H8.25227V9.48603L14.3261 3.31844L15.0308 5.96648H3.31938V0H20.8362V4.86034L14.7623 11.0279L10.9704 8.88268H13.0509C16.0039 8.88268 18.2523 9.5419 19.7959 10.8603C21.3395 12.1788 22.1113 13.8771 22.1113 15.9553C22.1113 17.2961 21.731 18.581 20.9704 19.8101C20.2321 21.0391 19.0688 22.0447 17.4805 22.8268C15.9145 23.6089 13.8787 24 11.3731 24Z" fill="#C7C7C7"/>
</svg>
