<svg width="25" height="24" viewBox="0 0 25 24" fill="none" xmlns="http://www.w3.org/2000/svg">
<path d="M11.917 24C10.3063 24 8.67317 23.8212 7.01769 23.4637C5.36221 23.1061 3.90807 22.581 2.65527 21.8883L5.33984 16.0559C6.34655 16.6369 7.398 17.0726 8.4942 17.3631C9.5904 17.6313 10.6307 17.7654 11.615 17.7654C12.5099 17.7654 13.2481 17.6089 13.8298 17.2961C14.4114 16.9832 14.7023 16.5251 14.7023 15.9218C14.7023 15.5866 14.6016 15.2961 14.4002 15.0503C14.1989 14.7821 13.841 14.581 13.3264 14.4469C12.8342 14.3128 12.1072 14.2458 11.1452 14.2458H4.33313L5.50762 0H21.1116V5.96648H8.29286L12.2861 2.58101L11.5814 11.6648L7.58816 8.27933H13.058C15.3846 8.27933 17.2414 8.61453 18.6284 9.28492C20.0378 9.95531 21.0557 10.8603 21.6821 12C22.3309 13.1173 22.6553 14.3687 22.6553 15.7542C22.6553 17.1397 22.275 18.4693 21.5143 19.743C20.7761 20.9944 19.6128 22.0223 18.0244 22.8268C16.4584 23.6089 14.4226 24 11.917 24Z" fill="#C7C7C7"/>
</svg>
