<svg width="24" height="24" viewBox="0 0 24 24" fill="none" xmlns="http://www.w3.org/2000/svg">
<path d="M13.2371 24C11.0866 24 9.19414 23.5847 7.55973 22.7541C5.94682 21.9016 4.67801 20.6448 3.75328 18.9836C2.85005 17.3005 2.39844 15.2131 2.39844 12.7213C2.39844 10.0328 2.92532 7.74863 3.97908 5.86885C5.03285 3.96721 6.49521 2.51366 8.36618 1.5082C10.2587 0.502732 12.4414 0 14.9146 0C16.2479 0 17.5275 0.163934 18.7533 0.491803C20.0006 0.797814 21.0544 1.23497 21.9146 1.80328L19.1726 7.21311C18.506 6.73224 17.8285 6.4153 17.1404 6.26229C16.4737 6.08743 15.7855 6 15.0759 6C13.549 6 12.3232 6.46994 11.3984 7.40984C10.4952 8.32787 10.0436 9.67213 10.0436 11.4426C10.0436 11.7705 10.0436 12.0984 10.0436 12.4262C10.0436 12.7322 10.0436 13.0492 10.0436 13.377L8.30166 12.0984C8.73177 11.3552 9.23715 10.7322 9.81779 10.2295C10.3984 9.70492 11.0866 9.31147 11.8823 9.04918C12.678 8.76503 13.6027 8.62295 14.6565 8.62295C16.0328 8.62295 17.3017 8.92896 18.463 9.54098C19.6458 10.1311 20.592 10.9727 21.3017 12.0656C22.0328 13.1585 22.3984 14.459 22.3984 15.9672C22.3984 17.6066 21.9898 19.0273 21.1726 20.2295C20.3554 21.4317 19.2479 22.3607 17.85 23.0164C16.4737 23.6721 14.9361 24 13.2371 24ZM12.721 18.6557C13.1726 18.6557 13.5705 18.5683 13.9146 18.3934C14.2802 18.1967 14.5597 17.9235 14.7533 17.5738C14.9468 17.224 15.0436 16.8087 15.0436 16.3279C15.0436 15.6066 14.8285 15.0383 14.3984 14.623C13.9683 14.1858 13.4092 13.9672 12.721 13.9672C12.2694 13.9672 11.8716 14.0656 11.5275 14.2623C11.1834 14.459 10.9038 14.7322 10.6888 15.082C10.4952 15.4317 10.3984 15.847 10.3984 16.3279C10.3984 16.8087 10.4952 17.224 10.6888 17.5738C10.9038 17.9235 11.1834 18.1967 11.5275 18.3934C11.8716 18.5683 12.2694 18.6557 12.721 18.6557Z" fill="#C7C7C7"/>
</svg>
