<svg width="25" height="24" viewBox="0 0 25 24" fill="none" xmlns="http://www.w3.org/2000/svg">
<path d="M12.4004 24C10.4259 24 8.68489 23.7049 7.17746 23.1148C5.69126 22.5027 4.52353 21.6503 3.67428 20.5574C2.82502 19.4426 2.40039 18.1421 2.40039 16.6557C2.40039 15.1694 2.83563 13.9016 3.70612 12.8525C4.57661 11.8033 5.76557 11.0055 7.273 10.459C8.78043 9.91257 10.4896 9.63934 12.4004 9.63934C14.3112 9.63934 16.0203 9.91257 17.5278 10.459C19.0352 11.0055 20.2242 11.8033 21.0947 12.8525C21.9651 13.9016 22.4004 15.1694 22.4004 16.6557C22.4004 18.1421 21.9758 19.4426 21.1265 20.5574C20.2772 21.6503 19.0989 22.5027 17.5915 23.1148C16.1053 23.7049 14.3749 24 12.4004 24ZM12.4004 18.7869C13.1223 18.7869 13.7061 18.5792 14.152 18.1639C14.6191 17.7268 14.8526 17.1366 14.8526 16.3934C14.8526 15.6503 14.6191 15.071 14.152 14.6557C13.7061 14.2186 13.1223 14 12.4004 14C11.6785 14 11.084 14.2186 10.617 14.6557C10.1711 15.071 9.94816 15.6503 9.94816 16.3934C9.94816 17.1366 10.1711 17.7268 10.617 18.1639C11.084 18.5792 11.6785 18.7869 12.4004 18.7869ZM12.4004 13.377C10.6594 13.377 9.08829 13.1257 7.68702 12.6229C6.30697 12.0984 5.21355 11.3552 4.40676 10.3934C3.59997 9.40983 3.19657 8.22951 3.19657 6.85246C3.19657 5.45355 3.58935 4.25137 4.37491 3.2459C5.16048 2.21858 6.24328 1.42076 7.62332 0.852458C9.00336 0.284153 10.5957 0 12.4004 0C14.2051 0 15.7974 0.284153 17.1775 0.852458C18.5575 1.42076 19.6403 2.21858 20.4259 3.2459C21.2114 4.25137 21.6042 5.45355 21.6042 6.85246C21.6042 8.22951 21.2008 9.40983 20.394 10.3934C19.5872 11.3552 18.4938 12.0984 17.1138 12.6229C15.7337 13.1257 14.1626 13.377 12.4004 13.377ZM12.4004 9.14754C12.9099 9.14754 13.3346 8.97268 13.6743 8.62295C14.014 8.27322 14.1838 7.79235 14.1838 7.18033C14.1838 6.54645 14.014 6.06557 13.6743 5.7377C13.3346 5.38798 12.9099 5.21311 12.4004 5.21311C11.8908 5.21311 11.4662 5.38798 11.1265 5.7377C10.7868 6.06557 10.617 6.54645 10.617 7.18033C10.617 7.79235 10.7868 8.27322 11.1265 8.62295C11.4662 8.97268 11.8908 9.14754 12.4004 9.14754Z" fill="#C7C7C7"/>
</svg>
