<svg width="25" height="24" viewBox="0 0 25 24" fill="none" xmlns="http://www.w3.org/2000/svg">
<path d="M11.5617 0C13.7122 0 15.5939 0.426229 17.2068 1.27869C18.8413 2.10929 20.1101 3.35519 21.0133 5.01639C21.938 6.6776 22.4004 8.76503 22.4004 11.2787C22.4004 13.9672 21.8735 16.2623 20.8197 18.1639C19.766 20.0437 18.3036 21.4863 16.4326 22.4918C14.5617 23.4973 12.3789 24 9.88426 24C8.55093 24 7.26061 23.8361 6.01329 23.5082C4.78749 23.2022 3.74448 22.765 2.88426 22.1967L5.6262 16.7869C6.29286 17.2678 6.95953 17.5956 7.6262 17.7705C8.31437 17.9235 9.01329 18 9.72297 18C11.2499 18 12.4649 17.541 13.3681 16.6229C14.2929 15.6831 14.7552 14.3279 14.7552 12.5574C14.7552 12.2295 14.7552 11.9126 14.7552 11.6066C14.7552 11.2787 14.7552 10.9508 14.7552 10.6229L16.4972 11.9016C16.0886 12.6448 15.5832 13.2787 14.981 13.8033C14.4004 14.306 13.7122 14.6995 12.9165 14.9836C12.1208 15.2459 11.1961 15.377 10.1423 15.377C8.76598 15.377 7.48641 15.082 6.30362 14.4918C5.14233 13.8798 4.19609 13.0273 3.46491 11.9344C2.75523 10.8197 2.40039 9.51912 2.40039 8.03279C2.40039 6.39344 2.80899 4.97268 3.6262 3.77049C4.4434 2.56831 5.54018 1.63934 6.91652 0.983606C8.31437 0.327869 9.86276 0 11.5617 0ZM12.0778 5.34426C11.6262 5.34426 11.2283 5.44262 10.8843 5.63934C10.5402 5.81421 10.2606 6.0765 10.0456 6.42623C9.852 6.77596 9.75523 7.19126 9.75523 7.67213C9.75523 8.39344 9.97028 8.97268 10.4004 9.40983C10.852 9.82514 11.4111 10.0328 12.0778 10.0328C12.5294 10.0328 12.9273 9.93443 13.2714 9.7377C13.6369 9.54098 13.9165 9.26776 14.1101 8.91803C14.3036 8.56831 14.4004 8.15301 14.4004 7.67213C14.4004 7.19126 14.3036 6.77596 14.1101 6.42623C13.9165 6.0765 13.6369 5.81421 13.2714 5.63934C12.9273 5.44262 12.5294 5.34426 12.0778 5.34426Z" fill="#C7C7C7"/>
</svg>
