<svg width="12" height="8" viewBox="0 0 12 8" fill="none" xmlns="http://www.w3.org/2000/svg">
<path d="M6.55674e-06 2.72197C4.2804e-05 2.54793 0.0500564 2.37782 0.143717 2.23316C0.237376 2.08849 0.370473 1.97579 0.52616 1.90931C0.681848 1.84282 0.853128 1.82555 1.01832 1.85968C1.18352 1.8938 1.3352 1.97779 1.45417 2.10101L5.1083 5.87606L10.5572 0.246902C10.7177 0.0866835 10.9328 -0.00197079 11.156 3.32127e-05C11.3792 0.00203722 11.5928 0.0945389 11.7506 0.257616C11.9085 0.420693 11.998 0.641296 12 0.871913C12.0019 1.10253 11.9161 1.32471 11.761 1.49059L5.70767 7.74248C5.54802 7.90737 5.3315 8 5.10575 8C4.87999 8 4.66348 7.90737 4.50382 7.74248L0.246907 3.3447C0.0879582 3.17914 -0.000848899 2.95515 6.55674e-06 2.72197Z" fill="#ED4B00"/>
</svg>
