<svg width="33" height="32" viewBox="0 0 33 32" fill="none" xmlns="http://www.w3.org/2000/svg">
<path d="M6.69922 24.5C6.69922 26.7091 8.49008 28.5 10.6992 28.5C12.9084 28.5 14.6992 26.7091 14.6992 24.5C14.6992 22.2909 12.9084 20.5 10.6992 20.5C8.49008 20.5 6.69922 22.2909 6.69922 24.5Z" stroke="black" stroke-width="2" stroke-linecap="round" stroke-linejoin="round"/>
<path d="M11.1992 20.5L7.83938 8.98056C7.75116 8.67808 7.52553 8.43487 7.23051 8.32423L3.69922 7M14.6992 23.5L27.1992 20" stroke="black" stroke-width="2" stroke-linecap="round" stroke-linejoin="round"/>
<path d="M12.9518 11.64C12.3052 9.29998 11.9825 8.12931 12.5318 7.20798C13.0798 6.28531 14.2865 5.97198 16.6998 5.34398L19.2598 4.67998C21.6732 4.05331 22.8798 3.73864 23.8305 4.27064C24.7812 4.80398 25.1052 5.97331 25.7505 8.31464L26.4372 10.7973C27.0838 13.1373 27.4078 14.308 26.8585 15.2306C26.3092 16.152 25.1025 16.4666 22.6892 17.0933L20.1292 17.7586C17.7158 18.3853 16.5092 18.6986 15.5585 18.1666C14.6078 17.6333 14.2852 16.464 13.6385 14.124L12.9518 11.64Z" stroke="#ED4B00" stroke-width="2"/>
</svg>
