<svg width="33" height="32" viewBox="0 0 33 32" fill="none" xmlns="http://www.w3.org/2000/svg">
<path d="M28.3994 11V27C28.3994 27.5523 27.9517 28 27.3994 28H12.8994M28.3994 11L20.3994 3M28.3994 11H21.3994C20.8471 11 20.3994 10.5523 20.3994 10V3M20.3994 3H11.3994C10.8471 3 10.3994 3.44772 10.3994 4V17" stroke="#04004C" stroke-width="2" stroke-linecap="round" stroke-linejoin="round"/>
<path fill-rule="evenodd" clip-rule="evenodd" d="M16.3994 23C16.3994 24.5913 15.7673 26.1174 14.6421 27.2426C13.5168 28.3679 11.9907 29 10.3994 29C8.80812 29 7.28199 28.3679 6.15677 27.2426C5.03156 26.1174 4.39941 24.5913 4.39941 23C4.39941 21.4087 5.03156 19.8826 6.15677 18.7574C7.28199 17.6321 8.80812 17 10.3994 17C11.9907 17 13.5168 17.6321 14.6421 18.7574C15.7673 19.8826 16.3994 21.4087 16.3994 23Z" fill="#ED4B00" stroke="#ED4B00" stroke-width="2"/>
<path d="M8.0459 22.5L10.0459 24.5L12.8994 21.5" stroke="white" stroke-width="1.5" stroke-linecap="round" stroke-linejoin="round"/>
</svg>
