<svg width="32" height="32" viewBox="0 0 32 32" fill="none" xmlns="http://www.w3.org/2000/svg">
<g clip-path="url(#clip0_893_49775)">
<path d="M3.18567 16.3856C8.35515 27.1222 23.6449 27.1222 28.8143 16.3856C28.9317 16.1419 28.9317 15.8581 28.8143 15.6144C23.6449 4.87777 8.35515 4.87777 3.18567 15.6144C3.06833 15.8581 3.06833 16.1419 3.18567 16.3856Z" stroke="#04004C" stroke-width="2" stroke-linecap="round" stroke-linejoin="round"/>
<path d="M18.8284 13.1716C18.0783 12.4214 17.0609 12 16 12C14.9391 12 13.9217 12.4214 13.1716 13.1716C12.4214 13.9217 12 14.9391 12 16C12 17.0609 12.4214 18.0783 13.1716 18.8284C13.9217 19.5786 14.9391 20 16 20C17.0609 20 18.0783 19.5786 18.8284 18.8284C19.5786 18.0783 20 17.0609 20 16C20 14.9391 19.5786 13.9217 18.8284 13.1716Z" fill="#ED4B00"/>
</g>
<defs>
<clipPath id="clip0_893_49775">
<rect width="32" height="32" fill="white"/>
</clipPath>
</defs>
</svg>
