<svg width="33" height="32" viewBox="0 0 33 32" fill="none" xmlns="http://www.w3.org/2000/svg">
<path d="M2.59961 30V22.5M2.59961 22.5V5.17591C2.59961 4.76757 2.84789 4.40025 3.22679 4.24801L6.09928 3.09388C7.85707 2.38763 9.80844 2.32806 11.606 2.92578L19.8554 5.6688C22.4466 6.53042 25.2542 6.48249 27.8145 5.53292L29.2519 4.99985C29.9051 4.75759 30.5996 5.24077 30.5996 5.93744V21.8043C30.5996 22.2225 30.3394 22.5965 29.9473 22.7419L27.8145 23.5329C25.2542 24.4825 22.4466 24.5304 19.8554 23.6688L11.606 20.9258C9.80844 20.3281 7.85707 20.3876 6.09928 21.0939L2.59961 22.5Z" stroke="#04004C" stroke-width="2" stroke-linecap="round" stroke-linejoin="round"/>
<path d="M7.59961 10.5L9.37666 9.86868C10.966 9.30404 12.6932 9.25618 14.3114 9.73195L18.4463 10.9477C20.7774 11.633 23.2617 11.5946 25.5705 10.8375L26.5996 10.5" stroke="#ED4B00" stroke-width="2" stroke-linecap="round" stroke-linejoin="round"/>
<path d="M6.59961 15.5L8.37666 14.8687C9.96601 14.304 11.6932 14.2562 13.3114 14.7319L17.4463 15.9477C19.7774 16.633 22.2617 16.5946 24.5705 15.8375L25.5996 15.5" stroke="#ED4B00" stroke-width="2" stroke-linecap="round" stroke-linejoin="round"/>
</svg>
