<svg width="226" height="75" viewBox="0 0 226 75" fill="none" xmlns="http://www.w3.org/2000/svg">
<g clip-path="url(#clip0_964_8751)">
<path d="M73.8232 71.4154C73.8232 72.0337 73.8444 72.4855 73.8848 72.7705C73.9259 73.0562 73.9944 73.2824 74.0902 73.4485C74.1854 73.6146 74.3273 73.7524 74.514 73.8632C74.7007 73.9739 75.0034 74.0847 75.4238 74.1941V74.8725H69.6523V74.1941C70.218 74.0472 70.5967 73.8836 70.7877 73.704C70.9791 73.524 71.1041 73.2689 71.1633 72.9366C71.2227 72.6044 71.2529 72.0979 71.2529 71.4154V59.4559C71.2529 58.8198 71.2305 58.3563 71.1847 58.0659C71.1387 57.7756 71.064 57.5493 70.9588 57.3889C70.8537 57.2275 70.7152 57.0985 70.5419 57.0013C70.3686 56.9044 70.0727 56.7968 69.6523 56.676V55.9989H75.4238V56.676C75.0224 56.7776 74.733 56.8795 74.5554 56.9811C74.3777 57.0828 74.2355 57.2092 74.1307 57.3609C74.0267 57.5135 73.9483 57.7416 73.8982 58.0455C73.8491 58.3497 73.8232 58.8198 73.8232 59.4559V71.4154Z" fill="white"/>
<path d="M89.7119 67.3924C90.0404 67.9449 90.3164 68.4288 90.5401 68.8434C90.7623 69.2593 90.9925 69.7237 91.2296 70.2403H91.4073C91.3625 69.6784 91.3211 68.5609 91.2844 66.8871C91.2486 65.2146 91.2296 63.7051 91.2296 62.3592V59.4559C91.2296 58.8197 91.2116 58.3541 91.1749 58.0593C91.1391 57.7642 91.0731 57.5383 90.977 57.381C90.8808 57.2253 90.7489 57.0985 90.5803 57.0016C90.4116 56.9044 90.1176 56.7968 89.6985 56.6759V55.9992H94.6214V56.6759C94.2113 56.7867 93.922 56.8883 93.753 56.9811C93.5844 57.0727 93.4469 57.1925 93.3429 57.3404C93.2378 57.4873 93.1584 57.7088 93.1037 58.0039C93.0489 58.2987 93.0212 58.7823 93.0212 59.4559V74.9549H91.3124L83.6959 62.0414C83.222 61.2391 82.8844 60.654 82.6834 60.2855C82.4833 59.9171 82.2967 59.5519 82.1234 59.1926H81.8909C81.9547 59.9023 82.0005 61.186 82.0272 63.0438C82.0552 64.9016 82.0686 66.7515 82.0686 68.5949V71.4154C82.0686 72.0336 82.0888 72.4857 82.1302 72.7705C82.1716 73.0565 82.2397 73.2824 82.3346 73.4485C82.4308 73.6146 82.5714 73.7524 82.7593 73.8631C82.946 73.9739 83.2488 74.0846 83.6679 74.1944V74.8724H78.6777V74.1944C79.2422 74.0475 79.6211 73.8836 79.8122 73.7039C80.0032 73.5243 80.1286 73.2688 80.1887 72.9366C80.2468 72.6044 80.277 72.0981 80.277 71.4154V59.4559C80.277 58.8197 80.2546 58.3563 80.2089 58.0659C80.1631 57.7755 80.0882 57.5496 79.9833 57.3892C79.8781 57.2275 79.7397 57.0985 79.5664 57.0016C79.3931 56.9044 79.0968 56.7968 78.6777 56.6759V55.9992H82.9572L89.7119 67.3924Z" fill="white"/>
<path d="M97.041 55.9992H111.836V60.811H110.496C110.295 60.0178 110.097 59.3917 109.901 58.9305C109.705 58.4696 109.498 58.1191 109.279 57.8797C109.06 57.64 108.825 57.4694 108.575 57.3678C108.323 57.2671 107.948 57.2162 107.447 57.2162H105.71V71.3739C105.71 71.9185 105.739 72.3514 105.799 72.6745C105.858 72.9967 105.949 73.2531 106.072 73.4419C106.195 73.6307 106.362 73.7785 106.571 73.8836C106.781 73.99 107.109 74.0938 107.555 74.1945V74.8725H101.307V74.1945C101.581 74.1312 101.822 74.0611 102.031 73.9878C102.241 73.9141 102.412 73.8238 102.544 73.7175C102.676 73.6124 102.785 73.4759 102.872 73.3098C102.959 73.1446 103.027 72.9187 103.077 72.6327C103.127 72.3467 103.153 71.9276 103.153 71.3739V57.2162H101.43C101.002 57.2162 100.649 57.2571 100.37 57.3408C100.092 57.4232 99.8351 57.5959 99.598 57.8592C99.36 58.1216 99.1444 58.4945 98.9477 58.9793C98.752 59.4628 98.5675 60.0732 98.3945 60.811H97.041V55.9992Z" fill="white"/>
<path d="M127.18 55.9992V60.1748H125.84C125.703 59.7227 125.562 59.3272 125.416 58.9859C125.27 58.6448 125.12 58.3589 124.965 58.1282C124.809 57.8976 124.64 57.7136 124.452 57.5758C124.265 57.4367 124.044 57.343 123.789 57.292C123.534 57.241 123.228 57.2162 122.873 57.2162H118.552V64.4612H121.478C121.879 64.4612 122.194 64.4036 122.422 64.2881C122.649 64.173 122.839 63.9776 122.989 63.7007C123.14 63.4239 123.283 62.991 123.42 62.4011H124.706V67.7102H123.42C123.292 67.1574 123.151 66.7406 122.996 66.4593C122.841 66.1777 122.656 65.9776 122.442 65.8581C122.228 65.7382 121.907 65.6784 121.478 65.6784H118.552V73.6555H122.804C123.252 73.6555 123.613 73.6171 123.892 73.5379C124.17 73.4598 124.409 73.3264 124.609 73.1367C124.809 72.9479 124.988 72.7016 125.142 72.3977C125.298 72.0938 125.427 71.7773 125.533 71.4507C125.637 71.1229 125.781 70.6459 125.963 70.0189H127.317L127.057 74.8725H114.395V74.1945C114.96 74.0475 115.339 73.8836 115.53 73.704C115.721 73.5243 115.846 73.2689 115.905 72.9366C115.965 72.6044 115.995 72.0982 115.995 71.4158V59.4562C115.995 58.8198 115.973 58.3567 115.927 58.0663C115.881 57.7756 115.806 57.5497 115.701 57.3892C115.596 57.2275 115.457 57.0988 115.284 57.0016C115.111 56.9044 114.815 56.7971 114.395 56.6763V55.9992H127.18Z" fill="white"/>
<path d="M134.673 57.2715V65.4837H136.219C137.011 65.4837 137.654 65.4261 138.146 65.3109C138.638 65.1955 139.094 64.9774 139.513 64.6543C139.933 64.3322 140.268 63.8826 140.519 63.3062C140.769 62.7308 140.895 62.0223 140.895 61.1838C140.895 60.3079 140.747 59.5802 140.451 58.9994C140.154 58.4186 139.705 57.9766 139.103 57.6717C138.502 57.3675 137.69 57.2162 136.67 57.2162C135.849 57.2162 135.183 57.2341 134.673 57.2715ZM134.673 66.6739V71.3736C134.673 72.0381 134.699 72.5194 134.748 72.819C134.798 73.1185 134.874 73.3444 134.973 73.497C135.074 73.6486 135.211 73.7729 135.384 73.8701C135.557 73.9673 135.853 74.0755 136.273 74.1945V74.8725H130.502V74.1945C131.068 74.0475 131.446 73.8836 131.637 73.704C131.829 73.5243 131.954 73.2689 132.013 72.9366C132.072 72.6044 132.102 72.0982 132.102 71.4154V59.4559C132.102 58.8198 132.08 58.3563 132.034 58.0659C131.988 57.7756 131.914 57.5497 131.808 57.3892C131.703 57.2275 131.565 57.0985 131.392 57.0016C131.218 56.9044 130.922 56.7968 130.502 56.676V55.9992H137.271C139.405 55.9992 141 56.3912 142.057 57.1743C143.114 57.9574 143.643 59.1747 143.643 60.8245C143.643 62.088 143.298 63.1615 142.611 64.0462C141.923 64.9312 140.89 65.6227 139.513 66.1201V66.2309C140.07 66.4612 140.546 66.7912 140.942 67.2194C141.339 67.6479 141.778 68.3146 142.263 69.2175L143.493 71.4843C143.848 72.1488 144.153 72.655 144.41 73.0055C144.664 73.3557 144.924 73.6237 145.188 73.8078C145.453 73.9922 145.804 74.1208 146.241 74.1945V74.8725H142.454C142.107 74.3842 141.778 73.8588 141.469 73.2959C141.159 72.7343 140.853 72.1623 140.553 71.5816L139.35 69.2729C138.984 68.5723 138.686 68.0557 138.454 67.7234C138.221 67.3924 138.007 67.1596 137.811 67.0262C137.615 66.8919 137.405 66.8003 137.182 66.7494C136.958 66.6987 136.624 66.6739 136.177 66.6739H134.673Z" fill="white"/>
<path d="M161.624 68.3464C161.624 69.351 161.532 70.2178 161.35 70.9455C161.177 71.6373 160.917 72.2508 160.57 72.7841C160.252 73.2645 159.855 73.6726 159.381 74.008C158.907 74.3449 158.333 74.6104 157.658 74.8036C156.984 74.9968 156.19 75.094 155.278 75.094C154.175 75.094 153.23 74.9697 152.442 74.7199C151.653 74.4714 151.001 74.0633 150.486 73.4973C149.971 72.9301 149.6 72.2621 149.372 71.4913C149.144 70.723 149.03 69.7433 149.03 68.5544V59.4563C149.03 58.7374 149.007 58.2504 148.962 57.9971C148.916 57.7442 148.85 57.5428 148.763 57.3962C148.677 57.248 148.552 57.1215 148.387 57.0152C148.223 56.9101 147.918 56.7972 147.471 56.6764V55.9993H153.214V56.6764C152.704 56.8063 152.348 56.9507 152.148 57.1124C151.947 57.2741 151.811 57.5157 151.738 57.8379C151.664 58.161 151.628 58.7003 151.628 59.4563V69.245C151.628 70.1397 151.721 70.8901 151.908 71.4992C152.096 72.1074 152.357 72.5796 152.695 72.9166C153.032 73.2532 153.433 73.4973 153.898 73.6487C154.363 73.8013 154.942 73.8771 155.635 73.8771C156.272 73.8771 156.833 73.7638 157.317 73.5379C157.8 73.313 158.203 72.9694 158.526 72.5085C158.85 72.0473 159.071 71.48 159.19 70.8077C159.309 70.1353 159.368 69.2311 159.368 68.0979V59.4563C159.368 58.6537 159.328 58.1057 159.251 57.8109C159.173 57.5157 159.046 57.2899 158.868 57.1329C158.69 56.9768 158.324 56.8242 157.767 56.6764V55.9993H163.223V56.6764C162.695 56.8151 162.333 56.9667 162.136 57.1329C161.94 57.299 161.806 57.5384 161.732 57.8514C161.66 58.1657 161.624 58.7003 161.624 59.4563V68.3464Z" fill="white"/>
<path d="M177.02 67.3924C177.349 67.9449 177.625 68.4288 177.849 68.8434C178.071 69.2593 178.301 69.7237 178.538 70.2403H178.716C178.671 69.6784 178.63 68.5609 178.593 66.8871C178.557 65.2146 178.538 63.7051 178.538 62.3592V59.4559C178.538 58.8197 178.52 58.3541 178.483 58.0593C178.448 57.7642 178.382 57.5383 178.286 57.381C178.189 57.2253 178.058 57.0985 177.889 57.0016C177.72 56.9044 177.426 56.7968 177.007 56.6759V55.9992H181.93V56.6759C181.52 56.7867 181.231 56.8883 181.062 56.9811C180.893 57.0727 180.755 57.1925 180.652 57.3404C180.546 57.4873 180.467 57.7088 180.412 58.0039C180.357 58.2987 180.33 58.7823 180.33 59.4559V74.9549H178.621L171.004 62.0414C170.531 61.2391 170.193 60.654 169.992 60.2855C169.792 59.9171 169.605 59.5519 169.432 59.1926H169.2C169.263 59.9023 169.309 61.186 169.336 63.0438C169.364 64.9016 169.377 66.7515 169.377 68.5949V71.4154C169.377 72.0336 169.397 72.4857 169.439 72.7705C169.48 73.0565 169.548 73.2824 169.643 73.4485C169.739 73.6146 169.88 73.7524 170.068 73.8631C170.255 73.9739 170.557 74.0846 170.976 74.1944V74.8724H165.986V74.1944C166.551 74.0475 166.93 73.8836 167.121 73.7039C167.312 73.5243 167.437 73.2688 167.497 72.9366C167.555 72.6044 167.586 72.0981 167.586 71.4154V59.4559C167.586 58.8197 167.563 58.3563 167.517 58.0659C167.472 57.7755 167.397 57.5496 167.292 57.3892C167.187 57.2275 167.048 57.0985 166.875 57.0016C166.702 56.9044 166.405 56.7968 165.986 56.6759V55.9992H170.266L177.02 67.3924Z" fill="white"/>
<path d="M189.272 71.4154C189.272 72.0337 189.294 72.4855 189.334 72.7705C189.375 73.0562 189.444 73.2824 189.539 73.4485C189.635 73.6146 189.777 73.7524 189.963 73.8632C190.15 73.9739 190.453 74.0847 190.873 74.1941V74.8725H185.102V74.1941C185.667 74.0472 186.046 73.8836 186.237 73.704C186.428 73.524 186.553 73.2689 186.612 72.9366C186.672 72.6044 186.702 72.0979 186.702 71.4154V59.4559C186.702 58.8198 186.68 58.3563 186.634 58.0659C186.588 57.7756 186.513 57.5493 186.408 57.3889C186.303 57.2275 186.164 57.0985 185.991 57.0013C185.818 56.9044 185.522 56.7968 185.102 56.676V55.9989H190.873V56.676C190.472 56.7776 190.182 56.8795 190.005 56.9811C189.827 57.0828 189.685 57.2092 189.58 57.3609C189.476 57.5135 189.398 57.7416 189.347 58.0455C189.298 58.3497 189.272 58.8198 189.272 59.4559V71.4154Z" fill="white"/>
<path d="M193.432 55.9992H208.226V60.811H206.886C206.685 60.0178 206.487 59.3917 206.292 58.9305C206.095 58.4696 205.888 58.1191 205.669 57.8797C205.45 57.64 205.216 57.4694 204.965 57.3678C204.714 57.2671 204.338 57.2162 203.838 57.2162H202.101V71.3739C202.101 71.9185 202.13 72.3514 202.189 72.6745C202.248 72.9967 202.34 73.2531 202.463 73.4419C202.586 73.6307 202.752 73.7785 202.961 73.8836C203.171 73.99 203.5 74.0938 203.946 74.1945V74.8725H197.697V74.1945C197.971 74.1312 198.213 74.0611 198.422 73.9878C198.632 73.9141 198.803 73.8238 198.935 73.7175C199.066 73.6124 199.176 73.4759 199.263 73.3098C199.349 73.1446 199.417 72.9187 199.468 72.6327C199.518 72.3467 199.544 71.9276 199.544 71.3739V57.2162H197.82C197.393 57.2162 197.039 57.2571 196.761 57.3408C196.483 57.4232 196.226 57.5959 195.989 57.8592C195.751 58.1216 195.535 58.4945 195.338 58.9793C195.143 59.4628 194.958 60.0732 194.785 60.811H193.432V55.9992Z" fill="white"/>
<path d="M215.718 66.9495L211.943 59.8571C211.488 58.9994 211.142 58.3869 210.905 58.0175C210.667 57.6491 210.43 57.3587 210.193 57.146C209.956 56.9349 209.683 56.7776 209.373 56.676V55.9992H215.198V56.676C214.342 56.7776 213.913 57.1517 213.913 57.7969C213.913 58.0637 213.974 58.3633 214.097 58.6955C214.221 59.0265 214.441 59.4965 214.761 60.1056L217.496 65.3729L220.189 60.5624C220.553 59.908 220.812 59.37 220.963 58.951C221.112 58.5316 221.187 58.1474 221.187 57.7969C221.187 57.4647 221.09 57.2048 220.893 57.0151C220.697 56.8264 220.408 56.7134 220.025 56.676V55.9992H225.208V56.676C224.834 56.815 224.505 57.006 224.224 57.2501C223.941 57.4943 223.654 57.824 223.362 58.239C223.07 58.6536 222.641 59.3543 222.077 60.3409L218.275 66.8941V71.3736C218.275 71.899 218.303 72.3241 218.357 72.6462C218.412 72.9693 218.503 73.227 218.63 73.4202C218.759 73.6146 218.926 73.766 219.136 73.8767C219.346 73.9874 219.674 74.0938 220.121 74.1945V74.8725H213.873V74.1945C214.309 74.1029 214.634 74.0035 214.843 73.8971C215.053 73.7921 215.221 73.6395 215.349 73.4416C215.476 73.2427 215.57 72.9829 215.629 72.6598C215.689 72.3376 215.718 71.9094 215.718 71.3736V66.9495Z" fill="white"/>
<path d="M78.5056 4.64013C78.2592 3.36587 77.9582 2.49005 77.6018 2.01363C77.2454 1.53721 76.707 1.29805 75.9857 1.29805H72.562V13.5566C72.562 14.4073 72.6682 15.0082 72.8831 15.3601C73.0975 15.7138 73.5889 15.9288 74.3573 16.0091V16.5982H68.9492V16.0091C69.5267 15.8727 69.9033 15.6848 70.0773 15.4438C70.2513 15.2046 70.3392 14.5917 70.3392 13.6061V3.20897C70.3392 2.2081 70.2466 1.58666 70.0608 1.3456C69.8732 1.10501 69.5031 0.917196 68.9492 0.780261V0.193054H79.6708V4.64013H78.5056Z" fill="white"/>
<path d="M85.5659 8.5699H86.9441C87.8408 8.5699 88.5791 8.45198 89.1617 8.21472C89.7443 7.97889 90.1905 7.58615 90.4994 7.03793C90.8084 6.48829 90.9621 5.76034 90.9621 4.85552C90.9621 4.16704 90.8709 3.59172 90.6885 3.13051C90.506 2.67121 90.2545 2.30034 89.9338 2.01886C89.6126 1.73833 89.2308 1.54054 88.7869 1.42452C88.3425 1.30803 87.8596 1.25003 87.3377 1.25003C86.5524 1.25003 85.9627 1.26571 85.5659 1.29805V8.5699ZM85.5659 13.5566C85.5659 14.0297 85.5912 14.4073 85.6434 14.6873C85.6942 14.9674 85.7737 15.1894 85.8818 15.3553C85.9881 15.5189 86.1315 15.6473 86.314 15.7395C86.4964 15.8318 86.7819 15.9221 87.1703 16.0091V16.5982H81.9531V16.0091C82.4431 15.8812 82.7723 15.7395 82.9397 15.5821C83.1052 15.4267 83.2147 15.2051 83.2655 14.916C83.3177 14.6274 83.3431 14.1871 83.3431 13.5942V3.19708C83.3431 2.64363 83.3229 2.24043 83.2839 1.98938C83.2434 1.73691 83.1795 1.54054 83.0882 1.40027C82.997 1.26048 82.8752 1.1478 82.7248 1.06412C82.5748 0.980433 82.3161 0.884389 81.9531 0.780261V0.193054H87.8479C89.7024 0.193054 91.0839 0.551558 91.991 1.26714C92.8976 1.98463 93.3523 3.07726 93.3523 4.54266C93.3523 5.37616 93.2084 6.12598 92.923 6.79021C92.6376 7.45635 92.2341 8.00124 91.7103 8.42488C91.1883 8.84995 90.5705 9.15378 89.8576 9.33826C89.1433 9.52274 88.3947 9.61498 87.6095 9.61498C86.7311 9.61498 86.0488 9.59977 85.5659 9.56744V13.5566Z" fill="white"/>
<path d="M108.805 0.780027C108.401 0.90983 108.049 1.14566 107.752 1.49038C107.455 1.83367 107.006 2.66051 106.403 3.96521L103.028 11.297C102.005 13.5169 101.123 15.0014 100.383 15.7512C99.6418 16.5005 98.7451 16.8747 97.6909 16.8747C97.049 16.8747 96.4495 16.7825 95.8955 16.598V13.5326H97.1792C97.2503 14.4631 97.6387 14.9277 98.3445 14.9277C99.2873 14.9277 100.159 14.1507 100.959 12.595L97.0965 4.03843C96.4937 2.6995 96.0681 1.85744 95.8179 1.51415C95.5678 1.16944 95.2217 0.925045 94.7773 0.780027V0.192345H99.8783V0.780027C99.1166 0.86894 98.7366 1.18988 98.7366 1.74143C98.7366 2.25541 98.9694 3.03946 99.4373 4.09834L102.125 10.192L104.501 4.6399C105.008 3.45265 105.263 2.55971 105.263 1.95824C105.263 1.25312 104.921 0.860382 104.239 0.780027V0.192345H108.805V0.780027Z" fill="white"/>
<path d="M123.912 0.192579V0.780261C123.47 0.892947 123.161 1.01942 122.987 1.15921C122.811 1.29948 122.693 1.50916 122.629 1.79111C122.566 2.07116 122.534 2.53903 122.534 3.1966V13.5942C122.534 14.0587 122.546 14.4068 122.569 14.6393C122.593 14.8713 122.634 15.0577 122.689 15.1975C122.743 15.3378 122.811 15.4523 122.89 15.5408C122.97 15.6283 123.083 15.7081 123.23 15.7799C123.377 15.8536 123.603 15.9288 123.912 16.0091V16.5982H118.921V16.0091C119.357 15.8979 119.661 15.7733 119.837 15.6368C120.011 15.4999 120.131 15.2916 120.198 15.0116C120.266 14.7315 120.3 14.2584 120.3 13.5942V1.29757H113.999V13.5942C113.999 14.1301 114.018 14.5233 114.054 14.7705C114.089 15.0201 114.148 15.2165 114.231 15.3601C114.315 15.5051 114.437 15.6245 114.599 15.72C114.763 15.8175 115.026 15.9131 115.389 16.0091V16.5982H110.387V16.0091C110.877 15.8807 111.206 15.739 111.373 15.5821C111.539 15.4267 111.648 15.2046 111.699 14.916C111.751 14.6274 111.777 14.1866 111.777 13.5942V3.1966C111.777 2.64316 111.756 2.24043 111.718 1.98938C111.677 1.73643 111.613 1.54006 111.522 1.3998C111.431 1.26001 111.309 1.14732 111.159 1.06364C111.008 0.979959 110.75 0.884389 110.387 0.780261V0.192579H123.912Z" fill="white"/>
<path d="M139.934 2.47955e-05V0.587707C139.491 0.700393 139.182 0.826869 139.008 0.966657C138.832 1.10692 138.714 1.3166 138.65 1.59856C138.587 1.87861 138.556 2.34647 138.556 3.00405V13.4016C138.556 13.8662 138.567 14.2142 138.591 14.4467C138.615 14.6788 138.655 14.8651 138.711 15.0049C138.765 15.1452 138.832 15.2598 138.912 15.3482C138.991 15.4357 139.104 15.5156 139.251 15.5874C139.398 15.6611 139.625 15.7362 139.934 15.8166V16.4057H134.943V15.8166C135.379 15.7053 135.682 15.5807 135.858 15.4443C136.032 15.3073 136.152 15.0991 136.219 14.819C136.287 14.539 136.321 14.0659 136.321 13.4016V1.10502H130.021V13.4016C130.021 13.9375 130.04 14.3307 130.075 14.578C130.111 14.8276 130.17 15.024 130.252 15.1675C130.337 15.3126 130.458 15.4319 130.62 15.5275C130.785 15.6249 131.048 15.7205 131.411 15.8166V16.4057H126.408V15.8166C126.898 15.6882 127.227 15.5465 127.395 15.3896C127.56 15.2341 127.67 15.0121 127.721 14.7235C127.773 14.4348 127.798 13.9941 127.798 13.4016V3.00405C127.798 2.4506 127.778 2.04788 127.739 1.79683C127.698 1.54388 127.635 1.34751 127.543 1.20724C127.452 1.06746 127.33 0.95477 127.18 0.871087C127.03 0.787405 126.771 0.691834 126.408 0.587707V2.47955e-05H139.934Z" fill="white"/>
<path d="M146.675 10.1085H151.642L149.384 2.35502L146.675 10.1085ZM151.239 16.5982V16.0091C151.635 15.9288 151.929 15.8418 152.123 15.7443C152.318 15.6487 152.463 15.5156 152.558 15.343C152.652 15.1704 152.701 14.9398 152.701 14.6512C152.701 14.3783 152.669 14.0844 152.605 13.7682C152.542 13.4506 152.451 13.0973 152.331 12.7046L151.892 11.1536H146.354L145.948 12.3323C145.743 12.9247 145.608 13.3741 145.545 13.6779C145.481 13.9817 145.451 14.2584 145.451 14.5062C145.451 14.9878 145.57 15.3397 145.812 15.565C146.053 15.789 146.425 15.9373 146.923 16.0091V16.5982H141.848V16.0091C142.292 15.9373 142.679 15.6777 143.006 15.2284C143.336 14.7795 143.655 14.1391 143.964 13.3056L148.921 1.14441e-05H150.799L154.839 13.4012C155.03 14.0264 155.199 14.5028 155.346 14.8309C155.492 15.1604 155.669 15.4167 155.875 15.6012C156.081 15.7852 156.361 15.9221 156.718 16.0091V16.5982H151.239Z" fill="white"/>
<path d="M79.1524 44.9811V44.369C78.8138 43.5277 78.5295 42.7916 78.2993 42.1578L77.373 39.6363C77.0604 38.7866 76.7765 38.174 76.522 37.8001C76.2655 37.4256 75.9674 37.1505 75.625 36.9766C75.2844 36.8007 74.8213 36.7137 74.2369 36.7137H72.7297V41.8722C72.7297 42.8711 72.8172 43.4995 72.9945 43.7569C73.1719 44.0158 73.5613 44.2198 74.1617 44.369V44.9811H68.9512V44.369C69.5111 44.2356 69.8936 44.0568 70.0988 43.833C70.3045 43.6077 70.4081 42.9546 70.4081 41.8722V31.0696C70.4081 29.9709 70.3011 29.309 70.0866 29.0837C69.8726 28.8584 69.4935 28.6811 68.9512 28.5462V27.9356H74.1617V28.5462C73.6106 28.688 73.2334 28.8742 73.0331 29.1034C72.8294 29.3322 72.7297 29.9867 72.7297 31.0696V35.6402H74.2125C74.8794 35.6402 75.4041 35.4382 75.7867 35.0336C76.1692 34.6305 76.6568 33.596 77.2499 31.9317C77.7942 30.3577 78.3345 29.265 78.8734 28.6524C79.4138 28.0403 80.2912 27.735 81.5107 27.735C81.8971 27.735 82.4077 27.8274 83.0428 28.0102V30.8814H81.8199C81.7217 30.0579 81.3617 29.6464 80.7456 29.6464C80.3669 29.6464 80.0406 29.8257 79.7699 30.1824C79.4983 30.5405 79.1226 31.3319 78.6453 32.5566C78.2661 33.5555 77.9378 34.2901 77.6574 34.7604C77.3784 35.2307 76.9939 35.619 76.5097 35.9278V36.0271C77.8592 36.444 78.9013 37.4805 79.6331 39.1359L80.7456 41.6717C81.1565 42.6123 81.5322 43.2757 81.8688 43.6645C82.2059 44.0513 82.713 44.2855 83.3887 44.369V44.9811H79.1524Z" fill="white"/>
<path d="M87.9058 36.2528C87.9058 38.8079 88.2741 40.7528 89.0114 42.0837C89.7481 43.416 90.824 44.0815 92.2403 44.0815C93.1388 44.0815 93.9004 43.7925 94.5253 43.214C95.1517 42.6355 95.6202 41.7892 95.9343 40.6728C96.2465 39.5568 96.4029 38.2546 96.4029 36.7636C96.4029 34.9486 96.2201 33.4438 95.8537 32.2498C95.4868 31.0553 94.9865 30.1878 94.3533 29.6464C93.7197 29.1054 92.9824 28.8337 92.1421 28.8337C91.4014 28.8337 90.7644 29.0096 90.2343 29.3593C89.7027 29.7086 89.2625 30.2056 88.9132 30.8513C88.5619 31.4974 88.3079 32.2765 88.1461 33.1919C87.9864 34.1093 87.9058 35.1279 87.9058 36.2528ZM91.9701 45.1816C90.9823 45.1816 90.0818 45.0166 89.2708 44.6886C88.4603 44.3586 87.7636 43.8473 87.1846 43.1517C86.6037 42.4562 86.1543 41.5674 85.8367 40.485C85.5211 39.4041 85.3613 38.1088 85.3613 36.6026C85.3613 34.7466 85.6418 33.1509 86.2017 31.8185C86.7616 30.4877 87.5618 29.4725 88.6044 28.7789C89.6451 28.0833 90.8538 27.7355 92.2281 27.7355C93.6952 27.7355 94.9269 28.062 95.9275 28.7151C96.9276 29.3697 97.6819 30.3315 98.1876 31.6002C98.6947 32.8708 98.9473 34.4161 98.9473 36.2405C98.9473 38.1869 98.6595 39.832 98.0821 41.1732C97.5065 42.513 96.6941 43.5158 95.6432 44.1827C94.5937 44.8482 93.3689 45.1816 91.9701 45.1816Z" fill="white"/>
<path d="M119.545 28.5462C119.183 28.6386 118.922 28.731 118.76 28.8214C118.601 28.9137 118.472 29.0269 118.378 29.1657C118.283 29.302 118.213 29.508 118.169 29.7832C118.124 30.0579 118.101 30.4822 118.101 31.0573V41.8599C118.101 42.4171 118.12 42.8252 118.157 43.0826C118.194 43.3414 118.255 43.5455 118.341 43.6947C118.427 43.8453 118.555 43.9698 118.724 44.0691C118.892 44.1704 119.168 44.2697 119.545 44.369V44.9811H114.396V44.369C114.864 44.2534 115.189 44.1185 115.372 43.9698C115.552 43.8187 115.675 43.5988 115.742 43.3079C115.807 43.0169 115.841 42.5342 115.841 41.8599V37.0759C115.841 35.8196 115.86 34.5475 115.896 33.2611C115.933 31.9747 115.975 31.0943 116.026 30.6206H115.816L110.925 42.9956H109.505L104.96 30.42H104.75C104.792 30.9273 104.83 31.8487 104.867 33.1791C104.904 34.5119 104.923 35.8818 104.923 37.2888V41.8599C104.923 42.4171 104.941 42.8252 104.978 43.0826C105.016 43.3414 105.078 43.5455 105.164 43.6947C105.25 43.8453 105.378 43.9698 105.547 44.0691C105.715 44.1704 105.989 44.2697 106.368 44.369V44.9811H101.859V44.369C102.37 44.2361 102.712 44.0884 102.886 43.9254C103.058 43.7638 103.172 43.5331 103.224 43.2333C103.279 42.9334 103.306 42.4754 103.306 41.8599V31.0573C103.306 30.4822 103.285 30.0633 103.244 29.8025C103.202 29.5397 103.134 29.3356 103.04 29.1904C102.945 29.0447 102.819 28.9276 102.663 28.8406C102.507 28.7537 102.239 28.6544 101.859 28.5462V27.9356H106.269L110.604 40.0854L115.372 27.9356H119.545V28.5462Z" fill="white"/>
<path d="M136.588 27.9356V28.5462C136.128 28.6633 135.807 28.7942 135.627 28.9399C135.444 29.0857 135.321 29.3035 135.254 29.5965C135.189 29.8874 135.156 30.3736 135.156 31.0568V41.8599C135.156 42.3425 135.168 42.7042 135.193 42.9457C135.218 43.1868 135.26 43.3805 135.317 43.5257C135.374 43.6714 135.444 43.7905 135.527 43.8824C135.609 43.9733 135.726 44.0563 135.879 44.1309C136.032 44.2075 136.267 44.2855 136.588 44.369V44.9811H131.403V44.369C131.855 44.2534 132.171 44.124 132.354 43.9817C132.535 43.8399 132.659 43.6235 132.729 43.3326C132.799 43.0416 132.835 42.55 132.835 41.8599V29.0837H126.289V41.8599C126.289 42.4166 126.308 42.8252 126.345 43.0821C126.382 43.3414 126.443 43.5455 126.529 43.6947C126.617 43.8453 126.744 43.9693 126.912 44.0686C127.082 44.1699 127.356 44.2692 127.733 44.369V44.9811H122.535V44.369C123.044 44.2356 123.386 44.0884 123.56 43.9254C123.732 43.7638 123.846 43.5331 123.899 43.2333C123.953 42.9334 123.979 42.4754 123.979 41.8599V31.0568C123.979 30.4817 123.958 30.0633 123.918 29.8025C123.876 29.5397 123.809 29.3356 123.715 29.1899C123.62 29.0447 123.493 28.9276 123.337 28.8406C123.181 28.7537 122.912 28.6544 122.535 28.5462V27.9356H136.588Z" fill="white"/>
<path d="M143.187 38.2383H148.349L146.002 30.1824L143.187 38.2383ZM147.929 44.9811V44.369C148.341 44.2855 148.647 44.1951 148.848 44.0938C149.051 43.9945 149.201 43.8562 149.3 43.6769C149.398 43.4976 149.449 43.258 149.449 42.9581C149.449 42.6745 149.416 42.3692 149.349 42.0407C149.284 41.7107 149.189 41.3436 149.064 40.9356L148.608 39.3241H142.854L142.433 40.5488C142.219 41.1643 142.078 41.6312 142.013 41.9468C141.947 42.2625 141.915 42.55 141.915 42.8074C141.915 43.3079 142.04 43.6734 142.291 43.9076C142.542 44.1403 142.928 44.2944 143.445 44.369V44.9811H138.172V44.369C138.634 44.2944 139.036 44.0247 139.376 43.5578C139.718 43.0915 140.05 42.426 140.371 41.56L145.521 27.7355H147.473L151.67 41.6593C151.869 42.309 152.044 42.804 152.197 43.1448C152.348 43.4872 152.532 43.7535 152.746 43.9451C152.96 44.1363 153.251 44.2786 153.622 44.369V44.9811H147.929Z" fill="white"/>
<path d="M168.279 41.8599C168.279 42.3425 168.292 42.7047 168.316 42.9457C168.341 43.1873 168.383 43.3805 168.441 43.5262C168.497 43.6714 168.567 43.7905 168.65 43.8829C168.732 43.9733 168.85 44.0568 169.003 44.1314C169.153 44.2075 169.39 44.2855 169.711 44.369V44.9811H164.538V44.369C164.991 44.2534 165.307 44.124 165.487 43.9822C165.67 43.8404 165.795 43.6235 165.865 43.3326C165.935 43.0416 165.97 42.55 165.97 41.8599V36.6273H159.103V41.8599C159.103 42.4171 159.123 42.8252 159.159 43.0826C159.196 43.3414 159.258 43.5455 159.344 43.6947C159.432 43.8453 159.558 43.9698 159.726 44.0691C159.897 44.1704 160.17 44.2697 160.547 44.369V44.9811H155.35V44.369C155.859 44.2361 156.201 44.0884 156.375 43.9254C156.547 43.7638 156.66 43.5331 156.713 43.2333C156.767 42.9334 156.794 42.4754 156.794 41.8599V31.0573C156.794 30.4822 156.773 30.0633 156.732 29.8025C156.69 29.5402 156.624 29.3356 156.529 29.1904C156.434 29.0447 156.308 28.9276 156.151 28.8406C155.995 28.7537 155.727 28.6544 155.35 28.5462V27.9356H160.547V28.5462C160.186 28.6386 159.925 28.731 159.765 28.8214C159.604 28.9137 159.475 29.0269 159.381 29.1657C159.286 29.302 159.216 29.508 159.172 29.7832C159.126 30.0579 159.103 30.4822 159.103 31.0573V35.4772H165.97V31.0573C165.97 30.333 165.935 29.838 165.865 29.5703C165.795 29.304 165.677 29.1 165.514 28.9597C165.349 28.8179 165.022 28.6811 164.538 28.5462V27.9356H169.711V28.5462C169.252 28.6633 168.931 28.7947 168.748 28.9399C168.567 29.0857 168.445 29.304 168.378 29.5965C168.313 29.8879 168.279 30.374 168.279 31.0573V41.8599Z" fill="white"/>
<path d="M182.039 44.9811V44.369C182.665 44.202 183.06 43.9837 183.225 43.7139C183.388 43.4427 183.471 42.8287 183.471 41.8722V36.5008C183.471 34.7461 183.488 33.6173 183.521 33.1173H183.471L176.444 41.8722C176.444 42.8711 176.532 43.4995 176.709 43.7569C176.886 44.0158 177.276 44.2198 177.876 44.369V44.9811H172.715V44.369C173.349 44.202 173.751 43.9837 173.919 43.7139C174.087 43.4427 174.172 42.8287 174.172 41.8722V31.0696C174.172 29.9709 174.064 29.309 173.85 29.0837C173.636 28.8584 173.257 28.6811 172.715 28.5462V27.9356H177.876V28.5462C177.325 28.688 176.948 28.8742 176.746 29.1034C176.544 29.3322 176.444 29.9867 176.444 31.0696V36.565C176.444 37.7961 176.42 38.8326 176.37 39.6739H176.444L183.471 30.9204C183.471 30.0366 183.387 29.4636 183.218 29.1958C183.049 28.9295 182.656 28.7132 182.039 28.5462V27.9356H187.177V28.5462C186.624 28.688 186.249 28.8742 186.047 29.1034C185.845 29.3322 185.743 29.9867 185.743 31.0696V41.8722C185.743 42.8711 185.833 43.4995 186.01 43.7569C186.186 44.0158 186.575 44.2198 187.177 44.369V44.9811H182.039Z" fill="white"/>
<path d="M201.514 23.3398C201.514 24.2626 201.118 24.9883 200.323 25.5115C199.528 26.0371 198.547 26.2994 197.376 26.2994C196.101 26.2994 195.113 26.046 194.413 25.5366C193.714 25.0288 193.363 24.2962 193.363 23.3398V22.827H195.451V23.3398C195.451 24.0388 195.597 24.5501 195.888 24.8747C196.181 25.1992 196.685 25.3628 197.401 25.3628C198.143 25.3628 198.666 25.2066 198.97 24.8939C199.275 24.5817 199.428 24.064 199.428 23.3398V22.827H201.514V23.3398ZM199.539 44.9811V44.369C200.165 44.202 200.56 43.9837 200.725 43.7139C200.888 43.4427 200.971 42.8287 200.971 41.8722V36.5008C200.971 34.7461 200.988 33.6173 201.021 33.1168H200.971L193.944 41.8722C193.944 42.8711 194.032 43.499 194.209 43.7564C194.386 44.0158 194.776 44.2198 195.376 44.369V44.9811H190.215V44.369C190.849 44.202 191.25 43.9837 191.419 43.7139C191.587 43.4427 191.671 42.8287 191.671 41.8722V31.0691C191.671 29.9709 191.564 29.3089 191.35 29.0837C191.136 28.8584 190.757 28.6811 190.215 28.5462V27.9356H195.376V28.5462C194.825 28.688 194.447 28.8742 194.245 29.1029C194.044 29.3322 193.944 29.9867 193.944 31.0691V36.5645C193.944 37.7961 193.919 38.8326 193.87 39.6734H193.944L200.971 30.9204C200.971 30.0366 200.886 29.4636 200.717 29.1953C200.549 28.9291 200.156 28.7127 199.539 28.5462V27.9356H204.677V28.5462C204.124 28.688 203.749 28.8742 203.546 29.1029C203.345 29.3322 203.243 29.9867 203.243 31.0691V41.8722C203.243 42.8711 203.332 43.499 203.51 43.7564C203.685 44.0158 204.075 44.2198 204.677 44.369V44.9811H199.539Z" fill="white"/>
<path d="M30.0788 22.6125C31.1671 23.3709 32.5186 23.7558 34.0884 23.7558C36.1049 23.7558 37.9944 23.0125 39.7064 21.5434C41.4299 20.0666 42.3015 18.5038 42.3015 16.8957C42.3015 14.0389 40.6487 12.5885 37.3846 12.5885C35.2305 12.5885 33.1782 13.2556 31.2869 14.5687C29.3729 15.897 28.4004 17.4672 28.4004 19.23C28.4004 20.6954 28.9651 21.8368 30.0788 22.6125Z" fill="#ED4B00"/>
<path d="M32.5535 69.5374C33.0248 69.1641 33.4926 68.772 33.9548 68.3501C36.8063 65.7448 45.4244 56.1926 50.871 48.6586V69.5374H32.5535ZM5.25156 5.30896H31.6058C40.4055 8.75592 47.4185 15.8145 50.871 24.69V43.6206C43.7933 54.6353 29.7615 68.1024 24.705 68.1024C23.0918 68.1024 21.8876 67.71 21.1215 66.938C20.3561 66.1662 19.9689 64.6361 19.9689 62.3913C19.9689 59.6108 20.9234 56.2456 22.8082 52.3828C24.6851 48.5084 26.5822 44.9907 28.4403 41.9359C30.3439 38.7839 31.2702 36.7601 31.2702 35.7578C31.2702 34.6562 30.9339 33.7966 30.2721 33.2039C29.6153 32.6208 28.7759 32.3237 27.7817 32.3237C25.1358 32.3237 22.4434 34.4084 19.7823 38.5208C17.1165 42.6087 14.9906 47.1306 13.4584 51.9578C11.9084 56.7886 11.1243 60.7543 11.1243 63.744C11.1243 65.9644 11.6363 67.9045 12.644 69.5374H5.25156V5.30896ZM0.00195312 74.8467H56.1235V-1.71661e-05H0.00195312V74.8467Z" fill="#ED4B00"/>
</g>
<defs>
<clipPath id="clip0_964_8751">
<rect width="226" height="75" fill="white"/>
</clipPath>
</defs>
</svg>
