<svg width="144" height="48" viewBox="0 0 144 48" fill="none" xmlns="http://www.w3.org/2000/svg">
<g clip-path="url(#clip0_943_9113)">
<path d="M47.0365 45.7057C47.0365 46.1014 47.05 46.3905 47.0757 46.573C47.1019 46.7558 47.1455 46.9006 47.2066 47.0069C47.2672 47.1132 47.3576 47.2014 47.4766 47.2723C47.5955 47.3431 47.7884 47.414 48.0563 47.4841V47.9182H44.3789V47.4841C44.7393 47.3901 44.9806 47.2854 45.1023 47.1704C45.2243 47.0552 45.3039 46.8919 45.3416 46.6793C45.3795 46.4666 45.3987 46.1425 45.3987 45.7057V38.0516C45.3987 37.6445 45.3844 37.3479 45.3553 37.162C45.326 36.9762 45.2784 36.8314 45.2114 36.7287C45.1444 36.6254 45.0561 36.5429 44.9457 36.4807C44.8353 36.4186 44.6467 36.3498 44.3789 36.2725V35.8391H48.0563V36.2725C47.8005 36.3375 47.6162 36.4027 47.503 36.4678C47.3898 36.5328 47.2992 36.6138 47.2323 36.7108C47.1661 36.8085 47.1162 36.9545 47.0842 37.149C47.0529 37.3437 47.0365 37.6445 47.0365 38.0516V45.7057Z" fill="#151515"/>
<path d="M57.1595 43.131C57.3689 43.4846 57.5447 43.7942 57.6873 44.0596C57.8288 44.3258 57.9755 44.623 58.1266 44.9536H58.2398C58.2112 44.594 58.1849 43.8788 58.1615 42.8076C58.1387 41.7372 58.1266 40.7711 58.1266 39.9097V38.0516C58.1266 37.6445 58.1151 37.3465 58.0917 37.1578C58.0689 36.9689 58.0269 36.8244 57.9656 36.7237C57.9043 36.624 57.8203 36.5429 57.7128 36.4808C57.6054 36.4186 57.418 36.3498 57.151 36.2724V35.8393H60.2877V36.2724C60.0264 36.3433 59.842 36.4084 59.7344 36.4678C59.6269 36.5264 59.5393 36.6031 59.4731 36.6977C59.4061 36.7917 59.3555 36.9335 59.3206 37.1224C59.2858 37.311 59.2681 37.6205 59.2681 38.0516V47.9709H58.1793L53.3263 39.7063C53.0244 39.1929 52.8093 38.8184 52.6812 38.5826C52.5537 38.3468 52.4348 38.113 52.3243 37.8831H52.1763C52.2169 38.3373 52.246 39.1589 52.2631 40.3479C52.2809 41.5369 52.2895 42.7208 52.2895 43.9006V45.7057C52.2895 46.1014 52.3023 46.3907 52.3287 46.5729C52.3551 46.756 52.3985 46.9005 52.459 47.0069C52.5202 47.1132 52.6098 47.2014 52.7296 47.2722C52.8485 47.3431 53.0414 47.414 53.3085 47.4843V47.9182H50.1289V47.4843C50.4885 47.3902 50.73 47.2853 50.8517 47.1704C50.9735 47.0554 51.0534 46.8919 51.0916 46.6793C51.1287 46.4666 51.1479 46.1426 51.1479 45.7057V38.0516C51.1479 37.6445 51.1336 37.3479 51.1045 37.162C51.0754 36.9762 51.0276 36.8316 50.9608 36.7289C50.8938 36.6254 50.8055 36.5429 50.6951 36.4808C50.5847 36.4186 50.396 36.3498 50.1289 36.2724V35.8393H52.8557L57.1595 43.131Z" fill="#151515"/>
<path d="M61.8301 35.8393H71.2567V38.9189H70.4031C70.2748 38.4113 70.1487 38.0106 70.0242 37.7154C69.8989 37.4204 69.7671 37.1961 69.6275 37.0428C69.4879 36.8894 69.3385 36.7803 69.1789 36.7152C69.0187 36.6508 68.7794 36.6182 68.4604 36.6182H67.3538V45.6791C67.3538 46.0277 67.3724 46.3048 67.4101 46.5115C67.4477 46.7177 67.5062 46.8818 67.5845 47.0027C67.6628 47.1235 67.7689 47.2181 67.9021 47.2854C68.036 47.3534 68.2453 47.4199 68.5294 47.4843V47.9182H64.5481V47.4843C64.7226 47.4438 64.8764 47.3989 65.0096 47.352C65.1435 47.3049 65.2525 47.2471 65.3364 47.179C65.4204 47.1118 65.4902 47.0244 65.5457 46.9181C65.6006 46.8124 65.644 46.6678 65.6762 46.4848C65.7081 46.3017 65.7245 46.0335 65.7245 45.6791V36.6182H64.6264C64.3538 36.6182 64.1288 36.6444 63.9514 36.6979C63.7741 36.7507 63.6104 36.8612 63.4593 37.0298C63.3076 37.1977 63.1703 37.4363 63.045 37.7466C62.9203 38.0561 62.8027 38.4467 62.6925 38.9189H61.8301V35.8393Z" fill="#151515"/>
<path d="M81.0331 35.8393V38.5117H80.1792C80.0924 38.2224 80.002 37.9693 79.9094 37.7508C79.816 37.5325 79.7207 37.3495 79.6217 37.2019C79.5228 37.0543 79.4146 36.9365 79.2948 36.8483C79.1759 36.7593 79.0349 36.6993 78.8725 36.6667C78.7102 36.6341 78.5151 36.6182 78.2887 36.6182H75.5358V41.255H77.3999C77.6557 41.255 77.8565 41.2181 78.0016 41.1442C78.1461 41.0705 78.2673 40.9455 78.3626 40.7683C78.4588 40.5911 78.55 40.3141 78.6376 39.9365H79.4566V43.3344H78.6376C78.5557 42.9806 78.4659 42.7138 78.367 42.5338C78.2687 42.3536 78.1505 42.2255 78.0145 42.149C77.8777 42.0723 77.6733 42.034 77.3999 42.034H75.5358V47.1394H78.2453C78.5302 47.1394 78.7607 47.1148 78.9382 47.0641C79.1154 47.0141 79.2678 46.9288 79.3953 46.8073C79.5228 46.6865 79.6366 46.5289 79.7349 46.3344C79.8339 46.1398 79.9165 45.9373 79.9835 45.7283C80.0503 45.5185 80.1415 45.2132 80.2575 44.8119H81.1207L80.9548 47.9182H72.8867V47.4843C73.2469 47.3903 73.4884 47.2854 73.6101 47.1704C73.7319 47.0554 73.8118 46.8919 73.8494 46.6793C73.8871 46.4666 73.9063 46.1427 73.9063 45.7059V38.0518C73.9063 37.6445 73.8923 37.3481 73.8629 37.1622C73.8338 36.9762 73.786 36.8316 73.7192 36.7289C73.6522 36.6254 73.5639 36.5431 73.4535 36.4809C73.3431 36.4186 73.1544 36.35 72.8867 36.2727V35.8393H81.0331Z" fill="#151515"/>
<path d="M85.808 36.6536V41.9094H86.7929C87.2976 41.9094 87.7072 41.8725 88.0212 41.7988C88.3345 41.7249 88.6249 41.5854 88.892 41.3786C89.1598 41.1724 89.3727 40.8847 89.5329 40.5158C89.6925 40.1475 89.7722 39.6941 89.7722 39.1575C89.7722 38.5969 89.6782 38.1312 89.4895 37.7595C89.3002 37.3878 89.0145 37.1049 88.6307 36.9097C88.2476 36.715 87.7306 36.6182 87.0805 36.6182C86.5571 36.6182 86.1333 36.6297 85.808 36.6536ZM85.808 42.6711V45.6789C85.808 46.1042 85.8244 46.4123 85.8557 46.604C85.8877 46.7957 85.936 46.9402 85.9995 47.0379C86.0635 47.1349 86.1505 47.2145 86.2608 47.2767C86.3712 47.3389 86.5599 47.4082 86.8278 47.4843V47.9182H83.1504V47.4843C83.5108 47.3903 83.7521 47.2854 83.8738 47.1704C83.9957 47.0554 84.0754 46.8919 84.1131 46.6793C84.151 46.4666 84.1702 46.1427 84.1702 45.7057V38.0516C84.1702 37.6445 84.1559 37.3479 84.1268 37.162C84.0974 36.9762 84.0499 36.8316 83.9828 36.7289C83.9158 36.6254 83.8276 36.5429 83.7172 36.4809C83.6068 36.4186 83.4182 36.3498 83.1504 36.2725V35.8393H87.4636C88.823 35.8393 89.8392 36.0902 90.5129 36.5914C91.1865 37.0926 91.5232 37.8716 91.5232 38.9275C91.5232 39.7362 91.3039 40.4232 90.866 40.9894C90.4274 41.5558 89.7694 41.9984 88.892 42.3167V42.3876C89.2466 42.535 89.55 42.7462 89.8027 43.0203C90.0557 43.2945 90.3354 43.7212 90.6439 44.2991L91.4278 45.7498C91.6542 46.1751 91.8487 46.4991 92.0118 46.7234C92.174 46.9475 92.3394 47.119 92.5081 47.2368C92.6768 47.3548 92.9004 47.4372 93.179 47.4843V47.9182H90.7656C90.5448 47.6057 90.3354 47.2694 90.1382 46.9092C89.9409 46.5498 89.7458 46.1837 89.5543 45.812L88.7881 44.3345C88.5551 43.8861 88.365 43.5555 88.2169 43.3428C88.0688 43.131 87.9322 42.982 87.8075 42.8966C87.6828 42.8106 87.549 42.7521 87.4067 42.7194C87.2641 42.687 87.0512 42.6711 86.7665 42.6711H85.808Z" fill="#151515"/>
<path d="M102.981 43.7416C102.981 44.3845 102.922 44.9393 102.807 45.405C102.696 45.8478 102.53 46.2404 102.309 46.5817C102.106 46.8892 101.854 47.1503 101.552 47.365C101.25 47.5806 100.884 47.7506 100.454 47.8742C100.024 47.9978 99.5187 48.0601 98.9376 48.0601C98.2348 48.0601 97.6323 47.9805 97.1304 47.8206C96.6276 47.6616 96.2125 47.4004 95.8841 47.0382C95.5558 46.6751 95.3195 46.2477 95.1742 45.7543C95.0289 45.2626 94.9563 44.6356 94.9563 43.8747V38.0519C94.9563 37.5918 94.9421 37.2801 94.9129 37.118C94.8838 36.9562 94.8417 36.8273 94.786 36.7335C94.7313 36.6386 94.6516 36.5577 94.5469 36.4896C94.4423 36.4224 94.2478 36.3501 93.9629 36.2728V35.8394H97.6224V36.2728C97.2971 36.3559 97.0705 36.4483 96.943 36.5518C96.8149 36.6553 96.7281 36.81 96.6817 37.0162C96.6347 37.2229 96.6119 37.5681 96.6119 38.0519V44.3167C96.6119 44.8893 96.671 45.3696 96.79 45.7594C96.9097 46.1486 97.0762 46.4508 97.2913 46.6665C97.5062 46.8819 97.762 47.0382 98.0582 47.135C98.3544 47.2327 98.7233 47.2812 99.1648 47.2812C99.5706 47.2812 99.9283 47.2087 100.237 47.0642C100.544 46.9202 100.801 46.7003 101.007 46.4053C101.214 46.1101 101.355 45.7471 101.43 45.3168C101.506 44.8865 101.543 44.3078 101.543 43.5825V38.0519C101.543 37.5383 101.518 37.1875 101.469 36.9988C101.419 36.81 101.338 36.6654 101.225 36.5649C101.112 36.465 100.878 36.3674 100.523 36.2728V35.8394H104V36.2728C103.663 36.3616 103.432 36.4586 103.307 36.5649C103.182 36.6712 103.097 36.8245 103.05 37.0248C103.004 37.226 102.981 37.5681 102.981 38.0519V43.7416Z" fill="#151515"/>
<path d="M112.79 43.131C113 43.4846 113.176 43.7942 113.318 44.0596C113.46 44.3258 113.606 44.623 113.757 44.9536H113.871C113.842 44.594 113.816 43.8788 113.792 42.8076C113.77 41.7372 113.757 40.7711 113.757 39.9097V38.0516C113.757 37.6445 113.746 37.3465 113.723 37.1578C113.7 36.9689 113.658 36.8244 113.596 36.7237C113.535 36.624 113.451 36.5429 113.344 36.4808C113.236 36.4186 113.049 36.3498 112.782 36.2724V35.8393H115.919V36.2724C115.657 36.3433 115.473 36.4084 115.365 36.4678C115.258 36.5264 115.17 36.6031 115.104 36.6977C115.037 36.7917 114.986 36.9335 114.952 37.1224C114.917 37.311 114.899 37.6205 114.899 38.0516V47.9709H113.81L108.957 39.7063C108.655 39.1929 108.44 38.8184 108.312 38.5826C108.185 38.3468 108.066 38.113 107.955 37.8831H107.807C107.848 38.3373 107.877 39.1589 107.894 40.3479C107.912 41.5369 107.92 42.7208 107.92 43.9006V45.7057C107.92 46.1014 107.933 46.3907 107.96 46.5729C107.986 46.756 108.029 46.9005 108.09 47.0069C108.151 47.1132 108.241 47.2014 108.36 47.2722C108.479 47.3431 108.672 47.414 108.939 47.4843V47.9182H105.76V47.4843C106.119 47.3902 106.361 47.2853 106.483 47.1704C106.604 47.0554 106.684 46.8919 106.722 46.6793C106.76 46.4666 106.779 46.1426 106.779 45.7057V38.0516C106.779 37.6445 106.765 37.3479 106.735 37.162C106.706 36.9762 106.658 36.8316 106.592 36.7289C106.525 36.6254 106.436 36.5429 106.326 36.4808C106.216 36.4186 106.027 36.3498 105.76 36.2724V35.8393H108.487L112.79 43.131Z" fill="#151515"/>
<path d="M120.597 45.7057C120.597 46.1014 120.61 46.3905 120.636 46.573C120.662 46.7558 120.706 46.9006 120.767 47.0069C120.828 47.1132 120.918 47.2014 121.037 47.2723C121.156 47.3431 121.349 47.414 121.617 47.4841V47.9182H117.939V47.4841C118.3 47.3901 118.541 47.2854 118.663 47.1704C118.785 47.0552 118.864 46.8919 118.902 46.6793C118.94 46.4666 118.959 46.1425 118.959 45.7057V38.0516C118.959 37.6445 118.945 37.3479 118.916 37.162C118.887 36.9762 118.839 36.8314 118.772 36.7287C118.705 36.6254 118.617 36.5429 118.506 36.4807C118.396 36.4186 118.207 36.3498 117.939 36.2725V35.8391H121.617V36.2725C121.361 36.3375 121.177 36.4027 121.064 36.4678C120.95 36.5328 120.86 36.6138 120.793 36.7108C120.727 36.8085 120.677 36.9545 120.645 37.149C120.613 37.3437 120.597 37.6445 120.597 38.0516V45.7057Z" fill="#151515"/>
<path d="M123.246 35.8393H132.673V38.9189H131.819C131.691 38.4113 131.565 38.0106 131.44 37.7154C131.315 37.4204 131.183 37.1961 131.044 37.0428C130.904 36.8894 130.754 36.7803 130.595 36.7152C130.435 36.6508 130.195 36.6182 129.876 36.6182H128.77V45.6791C128.77 46.0277 128.788 46.3048 128.826 46.5115C128.864 46.7177 128.922 46.8818 129.001 47.0027C129.079 47.1235 129.185 47.2181 129.318 47.2854C129.452 47.3534 129.661 47.4199 129.945 47.4843V47.9182H125.964V47.4843C126.139 47.4438 126.292 47.3989 126.426 47.352C126.559 47.3049 126.669 47.2471 126.752 47.179C126.836 47.1118 126.906 47.0244 126.962 46.9181C127.017 46.8124 127.06 46.6678 127.092 46.4848C127.124 46.3017 127.141 46.0335 127.141 45.6791V36.6182H126.042C125.77 36.6182 125.545 36.6444 125.367 36.6979C125.19 36.7507 125.026 36.8612 124.875 37.0298C124.724 37.1977 124.586 37.4363 124.461 37.7466C124.336 38.0561 124.219 38.4467 124.108 38.9189H123.246V35.8393Z" fill="#151515"/>
<path d="M137.447 42.8475L135.042 38.3084C134.752 37.7595 134.532 37.3674 134.38 37.131C134.229 36.8953 134.078 36.7094 133.927 36.5733C133.776 36.4382 133.602 36.3375 133.404 36.2725V35.8393H137.116V36.2725C136.57 36.3375 136.297 36.5769 136.297 36.9899C136.297 37.1606 136.336 37.3523 136.414 37.565C136.493 37.7768 136.634 38.0776 136.837 38.4674L138.58 41.8385L140.296 38.7598C140.528 38.341 140.693 37.9967 140.789 37.7285C140.884 37.46 140.932 37.2142 140.932 36.9899C140.932 36.7773 140.87 36.6109 140.745 36.4895C140.62 36.3687 140.435 36.2964 140.191 36.2725V35.8393H143.494V36.2725C143.255 36.3615 143.046 36.4837 142.867 36.6399C142.686 36.7962 142.503 37.0072 142.318 37.2728C142.132 37.5382 141.858 37.9866 141.499 38.618L139.076 42.8121V45.6789C139.076 46.0152 139.094 46.2872 139.129 46.4934C139.164 46.7002 139.221 46.8651 139.302 46.9888C139.385 47.1132 139.491 47.21 139.625 47.2809C139.759 47.3518 139.968 47.4199 140.253 47.4843V47.9182H136.271V47.4843C136.55 47.4257 136.756 47.3621 136.889 47.294C137.023 47.2268 137.131 47.1291 137.212 47.0025C137.293 46.8752 137.353 46.7089 137.391 46.5021C137.428 46.2959 137.447 46.0219 137.447 45.6789V42.8475Z" fill="#151515"/>
<path d="M50.0207 2.96962C49.8637 2.1541 49.6719 1.59357 49.4448 1.28866C49.2177 0.983753 48.8746 0.830689 48.415 0.830689H46.2336V8.67619C46.2336 9.22058 46.3013 9.60522 46.4382 9.8304C46.5748 10.0568 46.8879 10.1943 47.3775 10.2458V10.6228H43.9316V10.2458C44.2996 10.1584 44.5396 10.0382 44.6504 9.88396C44.7613 9.7309 44.8173 9.33865 44.8173 8.70783V2.05368C44.8173 1.41312 44.7583 1.0154 44.6399 0.86112C44.5204 0.707144 44.2846 0.586945 43.9316 0.499306V0.123494H50.7631V2.96962H50.0207Z" fill="#151515"/>
<path d="M54.5187 5.48467H55.3969C55.9682 5.48467 56.4386 5.40921 56.8098 5.25736C57.1811 5.10643 57.4654 4.85507 57.6622 4.50422C57.8591 4.15244 57.9571 3.68656 57.9571 3.10747C57.9571 2.66684 57.8989 2.29864 57.7827 2.00347C57.6664 1.70951 57.5061 1.47216 57.3018 1.29201C57.0972 1.11247 56.8539 0.985883 56.5711 0.911633C56.2879 0.83708 55.9802 0.799955 55.6477 0.799955C55.1473 0.799955 54.7716 0.809997 54.5187 0.830689V5.48467ZM54.5187 8.67619C54.5187 8.97897 54.5349 9.22058 54.5682 9.39982C54.6005 9.57905 54.6511 9.72116 54.7201 9.82736C54.7878 9.93204 54.8791 10.0142 54.9954 10.0732C55.1116 10.1323 55.2935 10.1901 55.541 10.2458V10.6228H52.2168V10.2458C52.529 10.1639 52.7387 10.0732 52.8454 9.97251C52.9508 9.873 53.0207 9.7312 53.053 9.54618C53.0863 9.36147 53.1024 9.07969 53.1024 8.70023V2.04607C53.1024 1.69186 53.0896 1.43382 53.0647 1.27314C53.0389 1.11156 52.9982 0.985883 52.9401 0.896114C52.8819 0.806649 52.8043 0.734529 52.7085 0.680973C52.6129 0.627416 52.4481 0.565948 52.2168 0.499306V0.123494H55.9727C57.1544 0.123494 58.0347 0.352937 58.6126 0.81091C59.1903 1.2701 59.48 1.96939 59.48 2.90724C59.48 3.44068 59.3883 3.92057 59.2064 4.34567C59.0246 4.772 58.7675 5.12073 58.4337 5.39186C58.1012 5.66391 57.7075 5.85836 57.2533 5.97643C56.7982 6.09449 56.3212 6.15353 55.8208 6.15353C55.2612 6.15353 54.8264 6.14379 54.5187 6.1231V8.67619Z" fill="#151515"/>
<path d="M69.3264 0.499206C69.0693 0.582279 68.8452 0.733213 68.6559 0.953832C68.4665 1.17354 68.1804 1.70272 67.796 2.53772L65.646 7.23005C64.9937 8.65083 64.4319 9.60086 63.9606 10.0807C63.4882 10.5603 62.9168 10.7998 62.2451 10.7998C61.8361 10.7998 61.4541 10.7408 61.1011 10.6227V8.66087H61.9191C61.9643 9.25639 62.2118 9.55369 62.6615 9.55369C63.2622 9.55369 63.8174 9.05646 64.3277 8.06079L61.8664 2.58458C61.4823 1.72767 61.2111 1.18875 61.0517 0.969047C60.8923 0.748427 60.6718 0.592017 60.3887 0.499206V0.123089H63.6389V0.499206C63.1535 0.556109 62.9114 0.761513 62.9114 1.1145C62.9114 1.44345 63.0597 1.94525 63.3578 2.62292L65.0701 6.52285L66.5843 2.96952C66.907 2.20968 67.0697 1.63821 67.0697 1.25326C67.0697 0.801986 66.8522 0.550632 66.4175 0.499206V0.123089H69.3264V0.499206Z" fill="#151515"/>
<path d="M78.952 0.123189V0.499306C78.6701 0.571425 78.4732 0.652369 78.3624 0.741835C78.2503 0.831603 78.1751 0.965799 78.1341 1.14625C78.0942 1.32548 78.0739 1.62492 78.0739 2.04577V8.70023C78.0739 8.99753 78.0813 9.22028 78.0963 9.36908C78.1116 9.51758 78.1374 9.63687 78.1727 9.72633C78.2072 9.8161 78.2503 9.88944 78.301 9.94604C78.3516 10.002 78.4235 10.0532 78.5173 10.0991C78.6108 10.1463 78.7552 10.1943 78.952 10.2458V10.6228H75.7719V10.2458C76.0497 10.1746 76.2432 10.0948 76.3553 10.0075C76.4661 9.91987 76.5425 9.78658 76.5854 9.60735C76.6285 9.42812 76.6501 9.12534 76.6501 8.70023V0.830386H72.6359V8.70023C72.6359 9.04317 72.6479 9.29483 72.6704 9.45307C72.6931 9.61283 72.7306 9.7385 72.7833 9.8304C72.8372 9.92321 72.9145 9.99959 73.0179 10.0608C73.1225 10.1231 73.2903 10.1843 73.5216 10.2458V10.6228H70.334V10.2458C70.6462 10.1636 70.8559 10.0729 70.9626 9.97251C71.068 9.873 71.1378 9.73089 71.1702 9.54618C71.2035 9.36147 71.2196 9.07939 71.2196 8.70023V2.04577C71.2196 1.69156 71.2068 1.43382 71.1822 1.27314C71.1561 1.11126 71.1154 0.985579 71.0572 0.89581C70.9991 0.806346 70.9215 0.734227 70.8259 0.68067C70.7301 0.627112 70.5653 0.565948 70.334 0.499306V0.123189H78.952Z" fill="#151515"/>
<path d="M89.1591 -0.000102043V0.376015C88.8771 0.448134 88.6803 0.529078 88.5694 0.618544C88.4574 0.708312 88.3822 0.842508 88.3411 1.02296C88.3013 1.20219 88.2809 1.50163 88.2809 1.92247V8.57694C88.2809 8.87424 88.2884 9.09699 88.3034 9.24579C88.3186 9.39429 88.3444 9.51358 88.3798 9.60304C88.4142 9.69281 88.4574 9.76614 88.508 9.82274C88.5586 9.87874 88.6305 9.92986 88.7243 9.97581C88.8178 10.023 88.9622 10.0711 89.1591 10.1225V10.4995H85.979V10.1225C86.2567 10.0513 86.4503 9.97155 86.5623 9.88421C86.6732 9.79657 86.7496 9.66329 86.7924 9.48406C86.8356 9.30482 86.8571 9.00204 86.8571 8.57694V0.707095H82.8429V8.57694C82.8429 8.91988 82.8549 9.17154 82.8774 9.32978C82.9002 9.48954 82.9376 9.61521 82.9903 9.70711C83.0443 9.79992 83.1216 9.8763 83.2249 9.93747C83.3295 9.99985 83.4973 10.061 83.7286 10.1225V10.4995H80.541V10.1225C80.8532 10.0403 81.0629 9.94964 81.1696 9.84922C81.2751 9.74971 81.3449 9.6076 81.3772 9.42289C81.4105 9.23818 81.4267 8.9561 81.4267 8.57694V1.92247C81.4267 1.56827 81.4138 1.31052 81.3892 1.14985C81.3632 0.987965 81.3224 0.862288 81.2643 0.772519C81.2062 0.683055 81.1286 0.610936 81.033 0.557379C80.9371 0.503821 80.7723 0.442657 80.541 0.376015V-0.000102043H89.1591Z" fill="#151515"/>
<path d="M93.4567 6.46939H96.6218L95.1827 1.50715L93.4567 6.46939ZM96.3644 10.6228V10.2458C96.6173 10.1943 96.8045 10.1387 96.9283 10.0763C97.052 10.0151 97.1446 9.92991 97.2051 9.81945C97.2653 9.70899 97.2965 9.5614 97.2965 9.37669C97.2965 9.20202 97.2761 9.01396 97.2351 8.8116C97.1952 8.60833 97.1371 8.38223 97.0607 8.13088L96.7809 7.13825H93.2523L92.9938 7.89261C92.8625 8.27177 92.7766 8.55934 92.7367 8.75378C92.696 8.94823 92.6765 9.12534 92.6765 9.28388C92.6765 9.59213 92.7529 9.81732 92.9069 9.96156C93.0606 10.1049 93.2973 10.1998 93.6149 10.2458V10.6228H90.3809V10.2458C90.664 10.1998 90.9106 10.0337 91.1191 9.74611C91.3291 9.45885 91.5326 9.04896 91.7294 8.51552L94.8879 -5.34058e-05H96.0846L98.6588 8.57668C98.7805 8.97684 98.888 9.28175 98.9818 9.49171C99.0744 9.7026 99.1874 9.86661 99.3186 9.98468C99.4498 10.1024 99.6284 10.1901 99.8555 10.2458V10.6228H96.3644Z" fill="#151515"/>
<path d="M50.4315 28.7878V28.3961C50.2158 27.8577 50.0346 27.3866 49.888 26.9809L49.2978 25.3672C49.0986 24.8234 48.9177 24.4313 48.7555 24.192C48.5921 23.9523 48.4022 23.7762 48.184 23.6649C47.967 23.5524 47.6719 23.4967 47.2996 23.4967H46.3392V26.7982C46.3392 27.4375 46.3949 27.8396 46.5079 28.0044C46.6209 28.17 46.869 28.3006 47.2516 28.3961V28.7878H43.9316V28.3961C44.2884 28.3107 44.5321 28.1963 44.6629 28.0531C44.7939 27.9089 44.8599 27.4909 44.8599 26.7982V19.8845C44.8599 19.1813 44.7918 18.7577 44.6551 18.6135C44.5187 18.4693 44.2772 18.3558 43.9316 18.2695V17.8787H47.2516V18.2695C46.9005 18.3603 46.6602 18.4794 46.5325 18.6262C46.4027 18.7725 46.3392 19.1915 46.3392 19.8845V22.8097H47.284C47.7089 22.8097 48.0433 22.6804 48.287 22.4215C48.5307 22.1635 48.8414 21.5014 49.2193 20.4362C49.5661 19.4289 49.9104 18.7295 50.2538 18.3375C50.5981 17.9458 51.1572 17.7504 51.9342 17.7504C52.1804 17.7504 52.5057 17.8095 52.9104 17.9265V19.764H52.1312C52.0686 19.237 51.8392 18.9736 51.4467 18.9736C51.2054 18.9736 50.9975 19.0884 50.825 19.3167C50.6519 19.5459 50.4125 20.0524 50.1084 20.8362C49.8668 21.4755 49.6576 21.9456 49.479 22.2466C49.3012 22.5476 49.0562 22.7961 48.7477 22.9937V23.0573C49.6075 23.3241 50.2715 23.9874 50.7378 25.0469L51.4467 26.6698C51.7085 27.2718 51.9479 27.6964 52.1623 27.9452C52.3771 28.1928 52.7003 28.3427 53.1308 28.3961V28.7878H50.4315Z" fill="#151515"/>
<path d="M56.0099 23.2016C56.0099 24.8368 56.2446 26.0816 56.7144 26.9333C57.1838 27.786 57.8693 28.2119 58.7717 28.2119C59.3442 28.2119 59.8295 28.0269 60.2277 27.6567C60.6268 27.2865 60.9253 26.7449 61.1255 26.0303C61.3244 25.3161 61.424 24.4827 61.424 23.5285C61.424 22.3669 61.3076 21.4038 61.0741 20.6396C60.8403 19.8751 60.5215 19.32 60.1181 18.9734C59.7143 18.6272 59.2446 18.4533 58.7092 18.4533C58.2372 18.4533 57.8313 18.5659 57.4936 18.7897C57.1549 19.0133 56.8744 19.3313 56.6518 19.7446C56.428 20.1581 56.2661 20.6567 56.1631 21.2426C56.0613 21.8297 56.0099 22.4816 56.0099 23.2016ZM58.5996 28.916C57.9701 28.916 57.3964 28.8104 56.8797 28.6005C56.3632 28.3893 55.9193 28.062 55.5504 27.6169C55.1803 27.1717 54.8939 26.6029 54.6916 25.9102C54.4905 25.2184 54.3887 24.3894 54.3887 23.4254C54.3887 22.2376 54.5674 21.2163 54.9241 20.3636C55.2808 19.5119 55.7908 18.8621 56.4551 18.4182C57.1181 17.9731 57.8883 17.7505 58.764 17.7505C59.6988 17.7505 60.4836 17.9595 61.1211 18.3775C61.7583 18.7964 62.239 19.412 62.5612 20.2239C62.8843 21.0371 63.0452 22.026 63.0452 23.1937C63.0452 24.4394 62.8619 25.4922 62.4939 26.3506C62.1272 27.2081 61.6095 27.8499 60.9399 28.2767C60.2713 28.7026 59.4908 28.916 58.5996 28.916Z" fill="#151515"/>
<path d="M76.169 18.2695C75.9387 18.3286 75.7721 18.3878 75.6691 18.4456C75.5676 18.5047 75.4857 18.5771 75.4254 18.666C75.365 18.7533 75.3204 18.8851 75.2924 19.0612C75.2635 19.237 75.2488 19.5086 75.2488 19.8766V26.7903C75.2488 27.1469 75.261 27.4081 75.2846 27.5728C75.308 27.7385 75.3472 27.8691 75.402 27.9645C75.4568 28.061 75.5384 28.1406 75.6458 28.2042C75.7531 28.269 75.9287 28.3326 76.169 28.3961V28.7878H72.8883V28.3961C73.1868 28.3221 73.3938 28.2358 73.5099 28.1406C73.6251 28.0439 73.7036 27.9032 73.7459 27.717C73.7873 27.5308 73.8088 27.2219 73.8088 26.7903V23.7285C73.8088 22.9245 73.8209 22.1103 73.8443 21.287C73.8679 20.4637 73.8947 19.9003 73.9271 19.5971H73.7929L70.6768 27.5172H69.7722L66.8762 19.4687H66.742C66.7688 19.7934 66.7934 20.3831 66.8167 21.2346C66.8404 22.0876 66.8525 22.9643 66.8525 23.8648V26.7903C66.8525 27.1469 66.8637 27.4081 66.8874 27.5728C66.912 27.7385 66.9509 27.8691 67.0057 27.9645C67.0605 28.061 67.1424 28.1406 67.2498 28.2042C67.3568 28.269 67.5315 28.3326 67.773 28.3961V28.7878H64.9004V28.3961C65.2257 28.3111 65.4439 28.2165 65.5544 28.1122C65.664 28.0088 65.7368 27.8611 65.7702 27.6692C65.805 27.4773 65.8218 27.1842 65.8218 26.7903V19.8766C65.8218 19.5086 65.8084 19.2405 65.7826 19.0735C65.7558 18.9053 65.7123 18.7748 65.6528 18.6818C65.5924 18.5885 65.5121 18.5136 65.4125 18.4579C65.3129 18.4023 65.142 18.3388 64.9004 18.2695V17.8787H67.7102L70.472 25.6546L73.5099 17.8787H76.169V18.2695Z" fill="#151515"/>
<path d="M87.0284 17.8787V18.2695C86.7354 18.3444 86.5309 18.4282 86.4157 18.5215C86.2993 18.6148 86.2212 18.7542 86.1785 18.9417C86.1371 19.1279 86.116 19.439 86.116 19.8763V26.7903C86.116 27.0992 86.1237 27.3306 86.1393 27.4852C86.1552 27.6395 86.182 27.7635 86.2187 27.8564C86.2545 27.9497 86.2993 28.0259 86.3519 28.0847C86.4045 28.1429 86.4792 28.196 86.5767 28.2437C86.6738 28.2927 86.8238 28.3427 87.0284 28.3961V28.7878H83.7243V28.3961C84.0128 28.3221 84.2139 28.2393 84.3304 28.1482C84.4455 28.0575 84.5249 27.919 84.5694 27.7328C84.6143 27.5466 84.6367 27.232 84.6367 26.7903V18.6135H80.4659V26.7903C80.4659 27.1466 80.4784 27.4081 80.5017 27.5725C80.5254 27.7385 80.5643 27.8691 80.6191 27.9645C80.6751 28.061 80.7557 28.1403 80.8628 28.2039C80.9715 28.2687 81.1458 28.3322 81.3861 28.3961V28.7878H78.0742V28.3961C78.3986 28.3107 78.6165 28.2165 78.7273 28.1122C78.8369 28.0088 78.9094 27.8611 78.943 27.6692C78.9776 27.4773 78.9944 27.1842 78.9944 26.7903V19.8763C78.9944 19.5083 78.981 19.2405 78.9555 19.0735C78.9284 18.9053 78.8861 18.7748 78.8257 18.6815C78.7653 18.5885 78.6847 18.5136 78.5854 18.4579C78.4858 18.4023 78.3145 18.3388 78.0742 18.2695V17.8787H87.0284Z" fill="#151515"/>
<path d="M91.2329 24.4724H94.5214L93.0263 19.3167L91.2329 24.4724ZM94.254 28.7878V28.3961C94.5168 28.3427 94.7113 28.2848 94.8399 28.22C94.9688 28.1565 95.0646 28.0679 95.1275 27.9532C95.1901 27.8384 95.2225 27.685 95.2225 27.4931C95.2225 27.3116 95.2013 27.1163 95.1587 26.906C95.1173 26.6948 95.0569 26.4599 94.9775 26.1987L94.6867 25.1674H91.0206L90.7519 25.9512C90.6156 26.3451 90.5262 26.6439 90.4848 26.8459C90.4425 27.048 90.4223 27.232 90.4223 27.3967C90.4223 27.717 90.5016 27.9509 90.6617 28.1008C90.8214 28.2497 91.0673 28.3484 91.3973 28.3961V28.7878H88.0371V28.3961C88.3313 28.3484 88.5875 28.1757 88.8041 27.877C89.0224 27.5785 89.2337 27.1526 89.4383 26.5984L92.72 17.7507H93.9633L96.6379 26.6619C96.7643 27.0777 96.8761 27.3945 96.9735 27.6126C97.0697 27.8317 97.1871 28.0022 97.3234 28.1248C97.4598 28.2472 97.6453 28.3382 97.8813 28.3961V28.7878H94.254Z" fill="#151515"/>
<path d="M107.221 26.7903C107.221 27.0992 107.229 27.3309 107.244 27.4852C107.26 27.6398 107.287 27.7635 107.324 27.8567C107.359 27.9497 107.404 28.0259 107.457 28.085C107.509 28.1429 107.584 28.1963 107.682 28.244C107.778 28.2927 107.929 28.3427 108.133 28.3961V28.7878H104.837V28.3961C105.126 28.3221 105.327 28.2393 105.442 28.1485C105.558 28.0578 105.638 27.919 105.682 27.7328C105.727 27.5466 105.749 27.232 105.749 26.7903V23.4414H101.374V26.7903C101.374 27.1469 101.387 27.4081 101.41 27.5728C101.433 27.7385 101.472 27.8691 101.527 27.9645C101.583 28.061 101.664 28.1406 101.771 28.2042C101.88 28.269 102.054 28.3326 102.294 28.3961V28.7878H98.9824V28.3961C99.3068 28.3111 99.5247 28.2165 99.6355 28.1122C99.7451 28.0088 99.8176 27.8611 99.8513 27.6692C99.8858 27.4773 99.9026 27.1842 99.9026 26.7903V19.8766C99.9026 19.5086 99.8892 19.2405 99.8634 19.0735C99.8366 18.9056 99.7943 18.7748 99.7339 18.6818C99.6735 18.5885 99.5929 18.5136 99.4933 18.4579C99.394 18.4023 99.2227 18.3388 98.9824 18.2695V17.8787H102.294V18.2695C102.064 18.3286 101.897 18.3878 101.796 18.4456C101.693 18.5047 101.611 18.5771 101.551 18.666C101.491 18.7533 101.446 18.8851 101.418 19.0612C101.389 19.237 101.374 19.5086 101.374 19.8766V22.7054H105.749V19.8766C105.749 19.4131 105.727 19.0963 105.682 18.9249C105.638 18.7545 105.563 18.6239 105.459 18.5341C105.354 18.4434 105.145 18.3558 104.837 18.2695V17.8787H108.133V18.2695C107.84 18.3444 107.636 18.4285 107.519 18.5215C107.404 18.6148 107.326 18.7545 107.283 18.9417C107.242 19.1282 107.221 19.4393 107.221 19.8766V26.7903Z" fill="#151515"/>
<path d="M115.988 28.7878V28.3961C116.387 28.2892 116.639 28.1495 116.743 27.9769C116.847 27.8033 116.9 27.4103 116.9 26.7982V23.3605C116.9 22.2374 116.911 21.515 116.932 21.195H116.9L112.423 26.7982C112.423 27.4375 112.479 27.8396 112.592 28.0044C112.705 28.17 112.953 28.3006 113.335 28.3961V28.7878H110.047V28.3961C110.451 28.2892 110.707 28.1495 110.814 27.9769C110.921 27.8033 110.975 27.4103 110.975 26.7982V19.8845C110.975 19.1813 110.907 18.7577 110.77 18.6135C110.634 18.4693 110.392 18.3558 110.047 18.2695V17.8787H113.335V18.2695C112.984 18.3603 112.744 18.4794 112.615 18.6262C112.487 18.7725 112.423 19.1915 112.423 19.8845V23.4016C112.423 24.1895 112.407 24.8528 112.376 25.3912H112.423L116.9 19.789C116.9 19.2234 116.847 18.8566 116.739 18.6853C116.632 18.5149 116.381 18.3764 115.988 18.2695V17.8787H119.262V18.2695C118.91 18.3603 118.67 18.4794 118.542 18.6262C118.413 18.7725 118.348 19.1915 118.348 19.8845V26.7982C118.348 27.4375 118.405 27.8396 118.518 28.0044C118.63 28.17 118.878 28.3006 119.262 28.3961V28.7878H115.988Z" fill="#151515"/>
<path d="M128.397 14.9374C128.397 15.528 128.144 15.9925 127.638 16.3273C127.131 16.6637 126.506 16.8316 125.76 16.8316C124.947 16.8316 124.318 16.6694 123.872 16.3434C123.427 16.0184 123.203 15.5495 123.203 14.9374V14.6092H124.534V14.9374C124.534 15.3848 124.627 15.712 124.812 15.9197C124.999 16.1275 125.32 16.2321 125.776 16.2321C126.249 16.2321 126.582 16.1322 126.776 15.9321C126.97 15.7323 127.067 15.4009 127.067 14.9374V14.6092H128.397V14.9374ZM127.138 28.7878V28.3961C127.537 28.2892 127.789 28.1495 127.894 27.9769C127.998 27.8033 128.05 27.4103 128.05 26.7982V23.3605C128.05 22.2374 128.061 21.515 128.083 21.1947H128.05L123.573 26.7982C123.573 27.4375 123.629 27.8393 123.742 28.0041C123.855 28.17 124.103 28.3006 124.486 28.3961V28.7878H121.197V28.3961C121.601 28.2892 121.857 28.1495 121.964 27.9769C122.072 27.8033 122.125 27.4103 122.125 26.7982V19.8842C122.125 19.1813 122.057 18.7577 121.921 18.6135C121.784 18.4693 121.543 18.3558 121.197 18.2695V17.8787H124.486V18.2695C124.135 18.3603 123.894 18.4794 123.765 18.6258C123.637 18.7725 123.573 19.1915 123.573 19.8842V23.4013C123.573 24.1895 123.558 24.8528 123.526 25.3909H123.573L128.05 19.789C128.05 19.2234 127.997 18.8566 127.889 18.685C127.782 18.5145 127.532 18.3761 127.138 18.2695V17.8787H130.412V18.2695C130.06 18.3603 129.821 18.4794 129.692 18.6258C129.563 18.7725 129.498 19.1915 129.498 19.8842V26.7982C129.498 27.4375 129.555 27.8393 129.668 28.0041C129.78 28.17 130.028 28.3006 130.412 28.3961V28.7878H127.138Z" fill="#151515"/>
<path d="M19.1632 14.4719C19.8566 14.9572 20.7177 15.2036 21.718 15.2036C23.0028 15.2036 24.2067 14.7279 25.2976 13.7877C26.3958 12.8425 26.9511 11.8423 26.9511 10.8131C26.9511 8.98481 25.898 8.05655 23.8182 8.05655C22.4457 8.05655 21.138 8.48344 19.933 9.32389C18.7134 10.174 18.0938 11.1789 18.0938 12.3071C18.0938 13.2449 18.4535 13.9755 19.1632 14.4719Z" fill="#ED4B00"/>
<path d="M20.7408 44.5039C21.0411 44.265 21.3392 44.0141 21.6337 43.7441C23.4506 42.0767 28.9417 35.9632 32.4122 31.1415V44.5039H20.7408ZM3.34488 3.39771H20.137C25.7438 5.60377 30.2123 10.1213 32.4122 15.8016V27.9171C27.9024 34.9666 18.9618 43.5855 15.74 43.5855C14.7121 43.5855 13.9448 43.3344 13.4567 42.8403C12.969 42.3464 12.7223 41.3671 12.7223 39.9304C12.7223 38.1509 13.3305 35.9972 14.5314 33.525C15.7273 31.0454 16.9361 28.7941 18.12 26.8389C19.3329 24.8217 19.9231 23.5265 19.9231 22.885C19.9231 22.1799 19.7088 21.6298 19.2872 21.2505C18.8687 20.8773 18.3338 20.6872 17.7004 20.6872C16.0145 20.6872 14.299 22.0214 12.6034 24.6533C10.9049 27.2695 9.55032 30.1636 8.57402 33.2529C7.58642 36.3447 7.0868 38.8828 7.0868 40.7962C7.0868 42.2172 7.41301 43.4588 8.05511 44.5039H3.34488V3.39771ZM0 47.9019H35.7589V-3.43323e-05H0V47.9019Z" fill="#ED4B00"/>
</g>
<defs>
<clipPath id="clip0_943_9113">
<rect width="144" height="48" fill="white"/>
</clipPath>
</defs>
</svg>
