<svg width="32" height="32" viewBox="0 0 32 32" fill="none" xmlns="http://www.w3.org/2000/svg">
<path d="M2 21.3333V25.8C2 28.1196 3.8804 30 6.2 30H29.3C29.6866 30 30 29.6866 30 29.3V22.0333C30 21.6467 29.6866 21.3333 29.3 21.3333H22.3M2 21.3333V2.7C2 2.3134 2.3134 2 2.7 2H8.3M2 21.3333H3.4M8.3 2L14.2361 3.56214C14.6241 3.66424 14.8471 4.07089 14.7245 4.45291L12.3333 11.9071M8.3 2L3.4 21.3333M22.3 21.3333L27.9268 19.0707C28.2946 18.9228 28.4663 18.4992 28.3053 18.1369L26.0912 13.1553C25.9315 12.796 25.5073 12.6387 25.1519 12.807L17.75 16.3132M22.3 21.3333H5.85M5.85 21.3333H4.45M5.85 21.3333L17.75 16.3132M4.45 21.3333H3.4M4.45 21.3333L12.3333 11.9071M17.75 16.3132L23.1929 10.2637C23.4662 9.95991 23.4223 9.48762 23.0977 9.23942L18.2968 5.56813C17.9933 5.33608 17.5599 5.39017 17.3227 5.68969L13.5937 10.4L12.3333 11.9071" stroke="#04004C" stroke-width="2" stroke-linejoin="round"/>
<path d="M15.9992 23.7667H14.2492C13.8626 23.7667 13.5492 24.0801 13.5492 24.4667V26.6333C13.5492 27.0199 13.8626 27.3333 14.2492 27.3333H15.9992C16.3858 27.3333 16.6992 27.0199 16.6992 26.6333V24.4667C16.6992 24.0801 16.3858 23.7667 15.9992 23.7667Z" stroke="#ED4B00" stroke-width="1.5" stroke-linejoin="round"/>
<path d="M21.2492 23.7667H19.4992C19.1126 23.7667 18.7992 24.0801 18.7992 24.4667V26.6333C18.7992 27.0199 19.1126 27.3333 19.4992 27.3333H21.2492C21.6358 27.3333 21.9492 27.0199 21.9492 26.6333V24.4667C21.9492 24.0801 21.6358 23.7667 21.2492 23.7667Z" stroke="#ED4B00" stroke-width="1.5" stroke-linejoin="round"/>
<path d="M26.4992 23.7667H24.7492C24.3626 23.7667 24.0492 24.0801 24.0492 24.4667V26.6333C24.0492 27.0199 24.3626 27.3333 24.7492 27.3333H26.4992C26.8858 27.3333 27.1992 27.0199 27.1992 26.6333V24.4667C27.1992 24.0801 26.8858 23.7667 26.4992 23.7667Z" stroke="#ED4B00" stroke-width="1.5" stroke-linejoin="round"/>
<path d="M4.7666 25.5667C4.7666 26.5424 5.55757 27.3333 6.53327 27.3333C7.50897 27.3333 8.29993 26.5424 8.29993 25.5667C8.29993 24.591 7.50897 23.8 6.53327 23.8C5.55757 23.8 4.7666 24.591 4.7666 25.5667Z" stroke="#ED4B00" stroke-width="1.5" stroke-linejoin="round"/>
</svg>
