<svg width="32" height="32" viewBox="0 0 32 32" fill="none" xmlns="http://www.w3.org/2000/svg">
<path d="M26.1033 13.5578C25.8962 13.1991 25.4375 13.0762 25.0788 13.2833C24.7201 13.4904 24.5972 13.9491 24.8043 14.3078L26.1033 13.5578ZM6.40355 7.26612L2.40423 9.57513L3.15423 10.8742L7.15355 8.56516L6.40355 7.26612ZM11.4065 27.9868L12.8405 30.4704L14.1395 29.7204L12.7056 27.2368L11.4065 27.9868ZM14.766 30.9864L19.486 28.2613L18.736 26.9623L14.016 29.6874L14.766 30.9864ZM25.5958 24.7338L29.5951 22.4248L28.8451 21.1258L24.8458 23.4348L25.5958 24.7338ZM20.5927 4.01318L19.1588 1.52953L17.8598 2.27953L19.2937 4.76318L20.5927 4.01318ZM17.2333 1.01358L12.5133 3.73866L13.2633 5.0377L17.9833 2.31262L17.2333 1.01358ZM1.88828 11.5007L5.95354 18.5419L7.25257 17.7919L3.18732 10.7507L1.88828 11.5007ZM30.111 20.4993L26.1033 13.5578L24.8043 14.3078L28.812 21.2493L30.111 20.4993ZM19.1588 1.52953C18.7695 0.855334 17.9075 0.624338 17.2333 1.01358L17.9833 2.31262C17.94 2.33759 17.8847 2.32277 17.8598 2.27953L19.1588 1.52953ZM29.5951 22.4248C30.2693 22.0356 30.5002 21.1735 30.111 20.4993L28.812 21.2493C28.787 21.2061 28.8018 21.1508 28.8451 21.1258L29.5951 22.4248ZM12.8405 30.4704C13.2297 31.1446 14.0918 31.3756 14.766 30.9864L14.016 29.6874C14.0593 29.6624 14.1146 29.6772 14.1395 29.7204L12.8405 30.4704ZM2.40423 9.57513C1.73003 9.96438 1.49903 10.8265 1.88828 11.5007L3.18732 10.7507C3.21229 10.7939 3.19747 10.8492 3.15423 10.8742L2.40423 9.57513Z" fill="#04004C"/>
<path d="M6.60059 26.7091V4.94279C6.60059 4.57851 6.89589 4.2832 7.26017 4.2832H24.4094C24.7737 4.2832 25.069 4.57851 25.069 4.94279V26.7091C25.069 27.0734 24.7737 27.3687 24.4094 27.3687H7.26017C6.89589 27.3687 6.60059 27.0734 6.60059 26.7091Z" stroke="#ED4B00" stroke-width="1.5" stroke-linejoin="round"/>
</svg>
