<svg width="33" height="32" viewBox="0 0 33 32" fill="none" xmlns="http://www.w3.org/2000/svg">
<path d="M26.5191 13.4329C26.2429 12.9546 25.6313 12.7907 25.153 13.0669C24.6747 13.343 24.5109 13.9546 24.787 14.4329L26.5191 13.4329ZM6.47777 7.04969L2.47845 9.3587L3.47845 11.0908L7.47777 8.78174L6.47777 7.04969ZM11.3893 28.1118L12.8232 30.5955L14.5553 29.5955L13.1213 27.1118L11.3893 28.1118ZM15.0902 31.203L19.8103 28.4779L18.8103 26.7458L14.0902 29.4709L15.0902 31.203ZM25.92 24.9504L29.9193 22.6414L28.9193 20.9094L24.92 23.2183L25.92 24.9504ZM21.0084 3.88825L19.5745 1.4046L17.8425 2.4046L19.2764 4.88825L21.0084 3.88825ZM17.3075 0.797154L12.5875 3.52223L13.5875 5.25428L18.3075 2.5292L17.3075 0.797154ZM1.87099 11.6257L5.93625 18.667L7.6683 17.667L3.60304 10.6257L1.87099 11.6257ZM30.5267 20.3744L26.5191 13.4329L24.787 14.4329L28.7947 21.3744L30.5267 20.3744ZM19.5745 1.4046C19.1162 0.610837 18.1012 0.338872 17.3075 0.797154L18.3075 2.5292C18.1447 2.62321 17.9365 2.56742 17.8425 2.4046L19.5745 1.4046ZM29.9193 22.6414C30.713 22.1831 30.985 21.1682 30.5267 20.3744L28.7947 21.3744C28.7007 21.2116 28.7565 21.0034 28.9193 20.9094L29.9193 22.6414ZM12.8232 30.5955C13.2815 31.3893 14.2965 31.6613 15.0902 31.203L14.0902 29.4709C14.2531 29.3769 14.4613 29.4327 14.5553 29.5955L12.8232 30.5955ZM2.47845 9.3587C1.68468 9.81698 1.41271 10.832 1.87099 11.6257L3.60304 10.6257C3.69705 10.7886 3.64126 10.9967 3.47845 11.0908L2.47845 9.3587Z" fill="#04004C"/>
<path d="M6.7998 26.7091V4.94279C6.7998 4.57851 7.09511 4.2832 7.45939 4.2832H24.6086C24.9729 4.2832 25.2682 4.57851 25.2682 4.94279V26.7091C25.2682 27.0734 24.9729 27.3687 24.6086 27.3687H7.45939C7.09511 27.3687 6.7998 27.0734 6.7998 26.7091Z" stroke="#ED4B00" stroke-width="2" stroke-linejoin="round"/>
</svg>
