<svg width="33" height="32" viewBox="0 0 33 32" fill="none" xmlns="http://www.w3.org/2000/svg">
<path d="M27.5996 20V25C27.5996 25.5523 27.1519 26 26.5996 26H4.59961C4.04732 26 3.59961 25.5523 3.59961 25V7C3.59961 6.44772 4.04732 6 4.59961 6H26.5996C27.1519 6 27.5996 6.44772 27.5996 7V12.5" stroke="#04004C" stroke-width="2" stroke-linecap="round" stroke-linejoin="round"/>
<path d="M15.0996 18.5V13.5C15.0996 12.9477 15.5473 12.5 16.0996 12.5H28.5996C29.1519 12.5 29.5996 12.9477 29.5996 13.5V18.5C29.5996 19.0523 29.1519 19.5 28.5996 19.5H16.0996C15.5473 19.5 15.0996 19.0523 15.0996 18.5Z" stroke="#ED4B00" stroke-width="2" stroke-linecap="round" stroke-linejoin="round"/>
<path d="M19.0996 15.5C19.3758 15.5 19.5996 15.7239 19.5996 16C19.5996 16.2761 19.3758 16.5 19.0996 16.5C18.8235 16.5 18.5996 16.2761 18.5996 16C18.5996 15.7239 18.8235 15.5 19.0996 15.5Z" fill="#ED4B00" stroke="#ED4B00" stroke-width="2" stroke-linecap="round" stroke-linejoin="round"/>
</svg>
