<svg width="34" height="32" viewBox="0 0 34 32" fill="none" xmlns="http://www.w3.org/2000/svg">
<path d="M27.4661 8.33333H29.1328C29.501 8.33333 29.7995 8.03486 29.7995 7.66667V6.66667C29.7995 6.29848 29.501 6 29.1328 6H27.4661C27.098 6 26.7995 6.29848 26.7995 6.66667V7.66667C26.7995 8.03486 27.098 8.33333 27.4661 8.33333Z" stroke="#ED4B00" stroke-width="2" stroke-linecap="round" stroke-linejoin="round"/>
<path d="M4.79948 8.33333H6.46615C6.83434 8.33333 7.13281 8.03486 7.13281 7.66667V6.66667C7.13281 6.29848 6.83434 6 6.46615 6H4.79948C4.43129 6 4.13281 6.29848 4.13281 6.66667V7.66667C4.13281 8.03486 4.43129 8.33333 4.79948 8.33333Z" stroke="#ED4B00" stroke-width="2" stroke-linecap="round" stroke-linejoin="round"/>
<path d="M7.13281 23H2.79948C2.43129 23 2.13281 22.7015 2.13281 22.3333V8.99999C2.13281 8.6318 2.43129 8.33332 2.79948 8.33332H4.13281H7.13281M7.13281 23V20.6667C7.13281 20.2985 7.43129 20 7.79948 20H26.1328C26.501 20 26.7995 20.2985 26.7995 20.6667V23M7.13281 23V28.6667C7.13281 29.0348 7.43129 29.3333 7.79948 29.3333H26.1328C26.501 29.3333 26.7995 29.0348 26.7995 28.6667V23M26.7995 23H31.4661C31.8343 23 32.1328 22.7015 32.1328 22.3333V8.99999C32.1328 8.6318 31.8343 8.33332 31.4661 8.33332H29.7995H26.7995M7.13281 8.33332H26.7995M7.13281 8.33332V5.99999V3.33332C7.13281 2.96513 7.43129 2.66666 7.79948 2.66666H26.1328C26.501 2.66666 26.7995 2.96513 26.7995 3.33332V5.99999V8.33332" stroke="#04004C" stroke-width="2" stroke-linecap="round" stroke-linejoin="round"/>
<path d="M9.4668 23H16.1335M19.1335 23H24.4668M24.4668 26.6667H13.4668M9.4668 26.6667H10.8001" stroke="#ED4B00" stroke-width="2" stroke-linecap="round" stroke-linejoin="round"/>
<circle cx="10.1335" cy="12.6667" r="0.666667" stroke="#ED4B00" stroke-width="2"/>
<circle cx="6.13346" cy="12.6667" r="0.666667" stroke="#ED4B00" stroke-width="2"/>
</svg>
