<svg width="32" height="32" viewBox="0 0 32 32" fill="none" xmlns="http://www.w3.org/2000/svg">
<path d="M26.6663 8.33333H28.333C28.7012 8.33333 28.9997 8.03486 28.9997 7.66667V6.66667C28.9997 6.29848 28.7012 6 28.333 6H26.6663C26.2982 6 25.9997 6.29848 25.9997 6.66667V7.66667C25.9997 8.03486 26.2982 8.33333 26.6663 8.33333Z" stroke="#ED4B00" stroke-width="1.33333" stroke-linecap="round" stroke-linejoin="round"/>
<path d="M3.99967 8.33333H5.66634C6.03453 8.33333 6.33301 8.03486 6.33301 7.66667V6.66667C6.33301 6.29848 6.03453 6 5.66634 6H3.99967C3.63148 6 3.33301 6.29848 3.33301 6.66667V7.66667C3.33301 8.03486 3.63148 8.33333 3.99967 8.33333Z" stroke="#ED4B00" stroke-width="1.33333" stroke-linecap="round" stroke-linejoin="round"/>
<path d="M6.33301 23.0001H1.99967C1.63148 23.0001 1.33301 22.7016 1.33301 22.3334V9.00008C1.33301 8.63189 1.63148 8.33341 1.99967 8.33341H3.33301H6.33301M6.33301 23.0001V20.6667C6.33301 20.2986 6.63148 20.0001 6.99967 20.0001H25.333C25.7012 20.0001 25.9997 20.2986 25.9997 20.6667V23.0001M6.33301 23.0001V28.6667C6.33301 29.0349 6.63148 29.3334 6.99967 29.3334H25.333C25.7012 29.3334 25.9997 29.0349 25.9997 28.6667V23.0001M25.9997 23.0001H30.6663C31.0345 23.0001 31.333 22.7016 31.333 22.3334V9.00008C31.333 8.63189 31.0345 8.33341 30.6663 8.33341H28.9997H25.9997M6.33301 8.33341H25.9997M6.33301 8.33341V6.00008V3.33341C6.33301 2.96522 6.63148 2.66675 6.99967 2.66675H25.333C25.7012 2.66675 25.9997 2.96522 25.9997 3.33341V6.00008V8.33341" stroke="#04004C" stroke-width="1.33333" stroke-linecap="round" stroke-linejoin="round"/>
<path d="M8.66699 23H15.3337M18.3337 23H23.667M23.667 26.6667H12.667M8.66699 26.6667H10.0003" stroke="#ED4B00" stroke-width="1.33333" stroke-linecap="round" stroke-linejoin="round"/>
<circle cx="9.33366" cy="12.6667" r="0.666667" stroke="#ED4B00" stroke-width="1.33333"/>
<circle cx="5.33366" cy="12.6667" r="0.666667" stroke="#ED4B00" stroke-width="1.33333"/>
</svg>
