<svg width="32" height="32" viewBox="0 0 32 32" fill="none" xmlns="http://www.w3.org/2000/svg">
<path d="M15.8862 24.0575C15.8241 24.1832 15.7639 24.2831 15.6938 24.3727C15.4454 24.6899 15.1038 24.9212 14.717 25.034C14.4528 25.1111 14.1537 25.1111 13.5556 25.1111C12.9574 25.1111 12.6583 25.1111 12.3941 25.034C12.0073 24.9212 11.6657 24.6899 11.4173 24.3727C11.2476 24.156 11.1365 23.8783 10.9144 23.3229C10.595 22.5246 9.70875 22.1135 8.89304 22.3854L8.21643 22.611C7.6424 22.8023 7.35539 22.898 7.0734 22.9067C6.73435 22.9172 6.39855 22.8379 6.09998 22.6769C5.85165 22.543 5.63773 22.3291 5.20988 21.9012C4.78204 21.4734 4.5681 21.2595 4.43421 21.0111C4.27322 20.7126 4.19395 20.3768 4.20441 20.0377C4.21311 19.7557 4.30878 19.4687 4.50013 18.8947L4.77637 18.066C5.0198 17.3357 4.65179 16.5422 3.93705 16.2563C3.23766 15.9765 2.88795 15.8367 2.63072 15.6029C2.40344 15.3964 2.22884 15.1385 2.12149 14.8508C2 14.5251 2 14.1447 2 13.3838C2 12.7413 2 12.42 2.09128 12.1342C2.17206 11.8812 2.30427 11.6477 2.47961 11.4483C2.67775 11.223 2.95052 11.0593 3.49607 10.732L3.85238 10.5182C4.63446 10.0488 4.96034 9.08129 4.6216 8.23442C4.40529 7.69366 4.29714 7.42329 4.26949 7.15572C4.22887 6.7626 4.31018 6.36651 4.50236 6.02119C4.63318 5.78614 4.83909 5.58023 5.25092 5.1684C5.6384 4.78092 5.83214 4.58718 6.05344 4.45993C6.37853 4.273 6.75112 4.18504 7.12548 4.20685C7.38033 4.2217 7.64026 4.30834 8.16012 4.48163L8.89298 4.72583C9.70875 4.99765 10.595 4.58654 10.9144 3.78818C11.1365 3.2328 11.2476 2.9551 11.4173 2.73841C11.6657 2.42123 12.0073 2.18994 12.3941 2.0771C12.6583 2 12.9574 2 13.5556 2C14.1537 2 14.4528 2 14.717 2.0771C15.1038 2.18994 15.4454 2.42123 15.6938 2.73841C15.8635 2.9551 15.9746 3.23279 16.1968 3.78818C16.5161 4.58651 17.4024 4.99757 18.2181 4.72566L18.9505 4.48153C19.4703 4.30825 19.7303 4.2216 19.9851 4.20676C20.3595 4.18495 20.732 4.2729 21.0571 4.45983C21.2784 4.58708 21.4722 4.78083 21.8597 5.1683C22.2715 5.58013 22.4774 5.78605 22.6082 6.02109C22.8004 6.36642 22.8817 6.76251 22.8411 7.15562C22.8134 7.42318 22.7053 7.69358 22.489 8.23433C22.1502 9.08117 22.4762 10.0487 23.2583 10.5179L23.615 10.732C24.1606 11.0593 24.4334 11.223 24.6315 11.4483C24.8068 11.6477 24.939 11.8812 25.0198 12.1342C25.0963 12.3736 25.1087 12.6379 25.1107 13.0951M15.6938 16.7599C15.0821 17.1689 14.3467 17.4074 13.5556 17.4074C11.4282 17.4074 9.7037 15.6829 9.7037 13.5556C9.7037 11.4282 11.4282 9.7037 13.5556 9.7037C15.5271 9.7037 17.1526 11.1849 17.3802 13.0951" stroke="#04004C" stroke-width="2" stroke-linecap="round" stroke-linejoin="round"/>
<path d="M29 13.3334H17C16.4477 13.3334 16 13.7811 16 14.3334V29C16 29.5523 16.4477 30 17 30H29C29.5523 30 30 29.5523 30 29V14.3334C30 13.7811 29.5523 13.3334 29 13.3334Z" stroke="#ED4B00" stroke-width="2"/>
<path d="M18.667 16.6666H21.3337" stroke="#ED4B00" stroke-width="2" stroke-linecap="round"/>
<path d="M18.667 20H26.667" stroke="#ED4B00" stroke-width="2" stroke-linecap="round"/>
<path d="M18.667 23.3334H23.3337" stroke="#ED4B00" stroke-width="2" stroke-linecap="round"/>
</svg>
