<svg width="32" height="32" viewBox="0 0 32 32" fill="none" xmlns="http://www.w3.org/2000/svg">
<path d="M4 13.8894C4 10.6425 4.29224 8.21587 4.43165 7.24296C4.47422 6.94589 4.65464 6.69209 4.92135 6.55451C5.79055 6.10613 7.97066 5.0449 11.02 4.00141L11.784 3.74008C13.8733 3.02408 14.9173 2.66675 16 2.66675C17.0813 2.66675 18.1267 3.02408 20.216 3.74008L20.98 4.00141C24.0293 5.04488 26.2094 6.10609 27.0786 6.55448C27.3453 6.69208 27.5258 6.94591 27.5683 7.24301C27.7077 8.21615 28 10.6434 28 13.8894V15.9881C28 23.5054 22.348 27.1548 18.8013 28.7028C17.84 29.1228 17.36 29.3334 16 29.3334C14.64 29.3334 14.16 29.1228 13.1987 28.7028C9.652 27.1534 4 23.5067 4 15.9881V13.8894Z" stroke="#04004C" stroke-width="2"/>
<path d="M11.3809 13.8L15.4985 18L21.3809 12" stroke="#ED4B00" stroke-width="2" stroke-linecap="round" stroke-linejoin="round"/>
</svg>
