<svg width="18" height="18" viewBox="0 0 18 18" fill="none" xmlns="http://www.w3.org/2000/svg">
<path d="M16.4998 7.57495C16.5748 7.19995 16.2748 6.74995 15.8998 6.74995L11.6248 6.14995L9.67476 2.24995C9.59976 2.09995 9.52476 2.02495 9.37476 1.94995C8.99976 1.72495 8.54976 1.87495 8.32476 2.24995L6.44976 6.14995L2.17476 6.74995C1.94976 6.74995 1.79976 6.82495 1.72476 6.97495C1.42476 7.27495 1.42476 7.72495 1.72476 8.02495L4.79976 11.025L4.04976 15.3C4.04976 15.45 4.04976 15.6 4.12476 15.75C4.34976 16.125 4.79976 16.275 5.17476 16.05L8.99976 14.025L12.8248 16.05C12.8998 16.125 13.0498 16.125 13.1998 16.125C13.2748 16.125 13.2748 16.125 13.3498 16.125C13.7248 16.05 14.0248 15.675 13.9498 15.225L13.1998 10.95L16.2748 7.94995C16.4248 7.87495 16.4998 7.72495 16.4998 7.57495Z" fill="#D6D6DE"/>
</svg>
