<svg width="64" height="108" viewBox="0 0 64 108" fill="none" xmlns="http://www.w3.org/2000/svg">
<g filter="url(#filter0_d_893_48927)">
<path d="M57.5069 31.7534C57.5069 17.5213 45.9703 6 31.7534 6C17.5367 6 6 17.5367 6 31.7534C6 31.7686 6 31.7843 6 31.7996V97.6872C6 100.075 7.92533 102 10.3128 102C11.1291 102 11.8839 101.769 12.5462 101.384C12.6078 101.353 12.6694 101.307 12.731 101.261L29.3352 90.6788C30.0284 90.2167 30.8601 89.9395 31.7534 89.9395C32.5697 89.9395 33.3399 90.1706 33.9869 90.5557L50.7757 101.245C50.8375 101.292 50.8993 101.338 50.9606 101.369C51.6076 101.769 52.3778 101.985 53.194 101.985C55.5815 101.985 57.5069 100.059 57.5069 97.672V31.7843C57.5069 31.7843 57.5069 31.7686 57.5069 31.7534Z" fill="white"/>
<path d="M52.958 31.8161C52.958 43.4758 43.5008 52.9335 31.8409 52.9335C20.1811 52.9335 10.7238 43.4758 10.7238 31.8161C10.7238 20.1562 20.1811 10.6989 31.8409 10.6989C43.5008 10.6989 52.958 20.1562 52.958 31.8161Z" fill="#EB4F27"/>
<path d="M31.9012 10.7751C20.2467 10.7751 10.7994 20.2224 10.7994 31.8771C10.7994 37.7023 13.1597 42.9766 16.977 46.7949C20.7954 50.6153 29.7911 56.1442 30.3186 61.9468C30.3977 62.817 31.0276 63.5298 31.9012 63.5298C32.7748 63.5298 33.4046 62.817 33.4841 61.9468C34.0114 56.1442 43.007 50.6153 46.8254 46.7949C50.6428 42.9766 53.0033 37.7023 53.0033 31.8771C53.0033 20.2224 43.5559 10.7751 31.9012 10.7751Z" fill="#EB4F27"/>
<path d="M34.9529 22.5274H32.8268C29.1612 22.5274 27.3283 24.3601 27.3283 27.1018C27.3283 30.1519 28.5451 31.6766 31.3022 33.5097L33.443 35.0343L27.3283 44.5072H22.4456L28.2524 35.9585C24.8946 33.5097 23.0617 31.3837 23.0617 27.4098C23.0617 22.5274 26.4195 19.1696 32.8268 19.1696H39.2348V44.5072H34.9681V22.5274H34.9529Z" fill="white"/>
<path d="M15.4544 71.5434L17.6169 74.963H16.0643L14.521 72.523L12.9499 74.963H11.6099L13.8186 71.5714L11.7484 68.3461H13.3195L14.752 70.6192L16.2214 68.3461H17.5522L15.4544 71.5434ZM20.0864 73.9C20.2466 73.9 20.3975 73.8725 20.5392 73.8171C20.6871 73.7553 20.8165 73.666 20.9274 73.5488C21.0383 73.432 21.1276 73.2932 21.1954 73.1333C21.2632 72.967 21.297 72.7757 21.297 72.5603C21.297 72.3509 21.2632 72.163 21.1954 71.9962C21.1276 71.8299 21.0383 71.6916 20.9274 71.5807C20.8165 71.4698 20.6871 71.3865 20.5392 71.331C20.3975 71.2692 20.2466 71.2388 20.0864 71.2388C19.9262 71.2388 19.7722 71.2692 19.6243 71.331C19.4826 71.3865 19.3563 71.4698 19.2454 71.5807C19.1345 71.6916 19.0452 71.8299 18.9774 71.9962C18.9096 72.163 18.8757 72.3509 18.8757 72.5603C18.8757 72.7757 18.9096 72.967 18.9774 73.1333C19.0452 73.2932 19.1345 73.432 19.2454 73.5488C19.3563 73.666 19.4826 73.7553 19.6243 73.8171C19.7722 73.8725 19.9262 73.9 20.0864 73.9ZM20.0864 75.0552C19.7414 75.0552 19.4148 74.9998 19.1068 74.8889C18.8049 74.7722 18.5369 74.6054 18.3028 74.39C18.0748 74.1742 17.8931 73.9122 17.7575 73.6042C17.6281 73.2966 17.5634 72.9483 17.5634 72.5603C17.5634 72.1782 17.6281 71.8363 17.7575 71.5341C17.8931 71.226 18.0748 70.9646 18.3028 70.7487C18.5369 70.5329 18.8049 70.37 19.1068 70.2592C19.4148 70.1419 19.7414 70.0836 20.0864 70.0836C20.4314 70.0836 20.7549 70.1419 21.0568 70.2592C21.3648 70.37 21.6329 70.5329 21.8608 70.7487C22.0949 70.9646 22.2797 71.226 22.4153 71.5341C22.5509 71.8363 22.6186 72.1782 22.6186 72.5603C22.6186 72.9483 22.5509 73.2966 22.4153 73.6042C22.2859 73.9122 22.1042 74.1742 21.87 74.39C21.6421 74.6054 21.374 74.7722 21.066 74.8889C20.758 74.9998 20.4314 75.0552 20.0864 75.0552ZM24.5115 70.1758L24.5392 70.8135C24.7241 70.5795 24.952 70.4005 25.2231 70.2773C25.5003 70.1478 25.8053 70.0836 26.138 70.0836C26.4276 70.0836 26.7049 70.1356 26.9698 70.2405C27.2347 70.3391 27.4688 70.4902 27.6722 70.6933C27.8754 70.8964 28.0357 71.149 28.1527 71.4512C28.2759 71.7529 28.3375 72.1012 28.3375 72.4956C28.3375 72.9145 28.2698 73.2839 28.1343 73.6042C28.0048 73.9186 27.8323 74.1835 27.6167 74.3994C27.401 74.6147 27.1546 74.7781 26.8773 74.8889C26.6063 74.9998 26.3321 75.0552 26.0548 75.0552C25.7468 75.0552 25.4695 75.0062 25.2231 74.9076C24.9766 74.809 24.761 74.6701 24.5762 74.4916V76.5989H23.2916V70.1758H24.5115ZM27.0345 72.5691C27.0345 72.3538 27.0006 72.1595 26.9328 71.9874C26.865 71.8147 26.7757 71.67 26.6648 71.5527C26.5539 71.4355 26.4245 71.3462 26.2767 71.2849C26.1288 71.2231 25.9717 71.1922 25.8053 71.1922C25.6451 71.1922 25.488 71.2231 25.334 71.2849C25.1861 71.3462 25.0536 71.4389 24.9366 71.5621C24.8196 71.6793 24.7271 71.824 24.6594 71.9962C24.5916 72.163 24.5577 72.3567 24.5577 72.5785C24.5577 72.8002 24.5916 72.9974 24.6594 73.1701C24.7271 73.3427 24.8196 73.4874 24.9366 73.6042C25.0536 73.7155 25.1861 73.8014 25.334 73.8632C25.4819 73.925 25.639 73.9554 25.8053 73.9554C25.9717 73.9554 26.1288 73.925 26.2767 73.8632C26.4245 73.8014 26.5539 73.7121 26.6648 73.5954C26.7757 73.4717 26.865 73.327 26.9328 73.1607C27.0006 72.9886 27.0345 72.7914 27.0345 72.5691ZM31.2685 73.9C31.4286 73.9 31.5796 73.8725 31.7213 73.8171C31.8691 73.7553 31.9985 73.666 32.1095 73.5488C32.2204 73.432 32.3097 73.2932 32.3774 73.1333C32.4452 72.967 32.4791 72.7757 32.4791 72.5603C32.4791 72.3509 32.4452 72.163 32.3774 71.9962C32.3097 71.8299 32.2204 71.6916 32.1095 71.5807C31.9985 71.4698 31.8691 71.3865 31.7213 71.331C31.5796 71.2692 31.4286 71.2388 31.2685 71.2388C31.1083 71.2388 30.9542 71.2692 30.8064 71.331C30.6647 71.3865 30.5383 71.4698 30.4275 71.5807C30.3166 71.6916 30.2272 71.8299 30.1595 71.9962C30.0917 72.163 30.0578 72.3509 30.0578 72.5603C30.0578 72.7757 30.0917 72.967 30.1595 73.1333C30.2272 73.2932 30.3166 73.432 30.4275 73.5488C30.5383 73.666 30.6647 73.7553 30.8064 73.8171C30.9542 73.8725 31.1083 73.9 31.2685 73.9ZM31.2685 75.0552C30.9234 75.0552 30.5969 74.9998 30.2889 74.8889C29.9869 74.7722 29.7189 74.6054 29.4848 74.39C29.2569 74.1742 29.0751 73.9122 28.9396 73.6042C28.8102 73.2966 28.7455 72.9483 28.7455 72.5603C28.7455 72.1782 28.8102 71.8363 28.9396 71.5341C29.0751 71.226 29.2569 70.9646 29.4848 70.7487C29.7189 70.5329 29.9869 70.37 30.2889 70.2592C30.5969 70.1419 30.9234 70.0836 31.2685 70.0836C31.6135 70.0836 31.9369 70.1419 32.2388 70.2592C32.5467 70.37 32.815 70.5329 33.0427 70.7487C33.2771 70.9646 33.4616 71.226 33.5975 71.5341C33.7329 71.8363 33.8006 72.1782 33.8006 72.5603C33.8006 72.9483 33.7329 73.2966 33.5975 73.6042C33.468 73.9122 33.2865 74.1742 33.052 74.39C32.8244 74.6054 32.556 74.7722 32.2481 74.8889C31.94 74.9998 31.6135 75.0552 31.2685 75.0552ZM34.4736 70.1758H35.7583V73.8818H37.3109V70.1758H38.5956V73.8818H40.1388V70.1758H41.4236V74.963H34.4736V70.1758ZM44.6906 75.0552C44.2839 75.0552 43.9204 74.9968 43.6001 74.8796C43.2798 74.7565 43.0085 74.5872 42.7868 74.3714C42.5651 74.156 42.3924 73.897 42.2693 73.5954C42.152 73.2873 42.0936 72.9513 42.0936 72.5878C42.0936 72.1998 42.1584 71.8515 42.2874 71.5434C42.4233 71.2354 42.6018 70.9734 42.8236 70.7581C43.0517 70.5422 43.3136 70.3759 43.6094 70.2592C43.9111 70.1419 44.2285 70.0836 44.5611 70.0836C44.9 70.0836 45.211 70.1478 45.4946 70.2773C45.784 70.4005 46.0244 70.5824 46.2152 70.8228C46.4124 71.0632 46.5541 71.3619 46.6405 71.719C46.7327 72.0703 46.7543 72.474 46.7052 72.9297H43.4426C43.5231 73.2441 43.6864 73.5026 43.9327 73.7062C44.1853 73.9034 44.5331 74.002 44.9771 74.002C45.2478 74.002 45.522 73.9647 45.7997 73.8912C46.0768 73.8107 46.3108 73.6998 46.5016 73.5581V74.575C46.3045 74.7167 46.0459 74.8335 45.7256 74.9262C45.4053 75.012 45.06 75.0552 44.6906 75.0552ZM44.515 71.072C44.2378 71.072 44.0033 71.1618 43.8125 71.3403C43.6217 71.5125 43.4922 71.747 43.4245 72.0428H45.4759C45.4573 71.7651 45.3651 71.5341 45.1988 71.3497C45.0325 71.1647 44.8044 71.072 44.515 71.072ZM49.7265 75.0552C49.3198 75.0552 48.9563 74.9968 48.636 74.8796C48.3157 74.7565 48.0444 74.5872 47.8227 74.3714C47.601 74.156 47.4283 73.897 47.3052 73.5954C47.1879 73.2873 47.1295 72.9513 47.1295 72.5878C47.1295 72.1998 47.1943 71.8515 47.3238 71.5434C47.4592 71.2354 47.6377 70.9734 47.8595 70.7581C48.0876 70.5422 48.3495 70.3759 48.6453 70.2592C48.947 70.1419 49.2644 70.0836 49.597 70.0836C49.9359 70.0836 50.2469 70.1478 50.5305 70.2773C50.8199 70.4005 51.0603 70.5824 51.2511 70.8228C51.4483 71.0632 51.59 71.3619 51.6764 71.719C51.7691 72.0703 51.7902 72.474 51.7411 72.9297H48.479C48.559 73.2441 48.7223 73.5026 48.9686 73.7062C49.2212 73.9034 49.5695 74.002 50.013 74.002C50.2842 74.002 50.5584 73.9647 50.8356 73.8912C51.1127 73.8107 51.3467 73.6998 51.538 73.5581V74.575C51.3408 74.7167 51.0818 74.8335 50.7615 74.9262C50.4412 75.012 50.0963 75.0552 49.7265 75.0552ZM49.5509 71.072C49.2737 71.072 49.0397 71.1618 48.8484 71.3403C48.6576 71.5125 48.5281 71.747 48.4604 72.0428H50.5118C50.4937 71.7651 50.401 71.5341 50.2347 71.3497C50.0684 71.1647 49.8403 71.072 49.5509 71.072ZM20.8517 78.0245L22.1455 80.7602L23.4948 78.0245H25.0566L25.0659 82.8117H23.7813V79.6786L22.469 82.4418H21.6002L20.3619 79.6511V82.8117H19.2529V78.0245H20.8517ZM28.3416 82.9039C27.9349 82.9039 27.5714 82.8455 27.251 82.7283C26.9307 82.6051 26.6596 82.4359 26.4378 82.2201C26.216 82.0047 26.0435 81.7457 25.9202 81.444C25.8031 81.136 25.7446 80.7999 25.7446 80.4365C25.7446 80.0484 25.8093 79.7002 25.9387 79.3921C26.0743 79.084 26.2529 78.8221 26.4747 78.6067C26.7027 78.3909 26.9646 78.2246 27.2603 78.1078C27.5622 77.9906 27.8795 77.9322 28.2121 77.9322C28.551 77.9322 28.8622 77.9965 29.1456 78.126C29.4352 78.2491 29.6754 78.4311 29.8664 78.6715C30.0636 78.9118 30.2053 79.2106 30.2916 79.5677C30.384 79.9189 30.4055 80.3226 30.3562 80.7784H27.0939C27.174 81.0928 27.3373 81.3513 27.5837 81.5549C27.8363 81.7521 28.1844 81.8507 28.628 81.8507C28.8992 81.8507 29.1733 81.8134 29.4506 81.7398C29.7278 81.6594 29.9619 81.5485 30.1529 81.4067V82.4236C29.9558 82.5654 29.697 82.6822 29.3766 82.7749C29.0562 82.8607 28.7112 82.9039 28.3416 82.9039ZM28.1659 78.9207C27.8887 78.9207 27.6546 79.0104 27.4636 79.189C27.2726 79.3612 27.1432 79.5957 27.0755 79.8915H29.1271C29.1086 79.6138 29.0162 79.3828 28.8499 79.1983C28.6835 79.0134 28.4555 78.9207 28.1659 78.9207ZM33.3404 82.9039C32.9588 82.9039 32.6105 82.8455 32.2963 82.7283C31.9821 82.6115 31.7109 82.4482 31.483 82.2387C31.2612 82.0229 31.0887 81.7644 30.9655 81.4622C30.8422 81.1541 30.7806 80.8093 30.7806 80.4271C30.7806 80.0514 30.8422 79.7095 30.9655 79.4014C31.0949 79.0933 31.2735 78.8314 31.5015 78.6161C31.7356 78.4002 32.0129 78.2339 32.3332 78.1167C32.6537 77.9936 33.0108 77.9322 33.4052 77.9322C33.6823 77.9322 33.932 77.9597 34.1537 78.0151C34.3818 78.0706 34.5761 78.1417 34.736 78.2275V79.3921C34.5761 79.269 34.3912 79.1767 34.1817 79.1149C33.9722 79.0472 33.7593 79.0134 33.544 79.0134C33.1128 79.0134 32.7616 79.1395 32.4903 79.3921C32.2254 79.6447 32.0929 79.9773 32.0929 80.3903C32.0929 80.6062 32.1268 80.8029 32.1946 80.9819C32.2685 81.1541 32.3702 81.3023 32.4996 81.4254C32.6291 81.5485 32.7797 81.6471 32.9524 81.7212C33.131 81.7889 33.3252 81.8227 33.5347 81.8227C33.7441 81.8227 33.9536 81.7918 34.1631 81.7305C34.3725 81.6687 34.5668 81.573 34.7453 81.444V82.5438C34.5977 82.6547 34.4005 82.744 34.1537 82.8117C33.9075 82.8735 33.6362 82.9039 33.3404 82.9039ZM39.4315 78.0245V79.1056H37.9805V82.8117H36.6957V79.1056H35.2727V78.0245H39.4315ZM42.1123 81.7487C42.2722 81.7487 42.4233 81.7212 42.5651 81.6657C42.7127 81.6039 42.8422 81.5147 42.9531 81.3974C43.0639 81.2807 43.1532 81.1419 43.2209 80.9819C43.2886 80.8156 43.3229 80.6243 43.3229 80.409C43.3229 80.1995 43.2886 80.0116 43.2209 79.8449C43.1532 79.6786 43.0639 79.5402 42.9531 79.4294C42.8422 79.3185 42.7127 79.2351 42.5651 79.1797C42.4233 79.1179 42.2722 79.0875 42.1123 79.0875C41.9519 79.0875 41.7979 79.1179 41.6502 79.1797C41.5084 79.2351 41.3819 79.3185 41.271 79.4294C41.1601 79.5402 41.0709 79.6786 41.0032 79.8449C40.9355 80.0116 40.9016 80.1995 40.9016 80.409C40.9016 80.6243 40.9355 80.8156 41.0032 80.9819C41.0709 81.1419 41.1601 81.2807 41.271 81.3974C41.3819 81.5147 41.5084 81.6039 41.6502 81.6657C41.7979 81.7212 41.9519 81.7487 42.1123 81.7487ZM42.1123 82.9039C41.7669 82.9039 41.4407 82.8484 41.1327 82.7376C40.8305 82.6208 40.5627 82.4541 40.3282 82.2387C40.1006 82.0229 39.9186 81.7609 39.7832 81.4529C39.6537 81.1453 39.5889 80.797 39.5889 80.409C39.5889 80.0269 39.6537 79.6849 39.7832 79.3828C39.9186 79.0747 40.1006 78.8132 40.3282 78.5974C40.5627 78.3816 40.8305 78.2187 41.1327 78.1078C41.4407 77.9906 41.7669 77.9322 42.1123 77.9322C42.4571 77.9322 42.7804 77.9906 43.0826 78.1078C43.3906 78.2187 43.6585 78.3816 43.8866 78.5974C44.1206 78.8132 44.3055 79.0747 44.4409 79.3828C44.5763 79.6849 44.6445 80.0269 44.6445 80.409C44.6445 80.797 44.5763 81.1453 44.4409 81.4529C44.3114 81.7609 44.1299 82.0229 43.8959 82.2387C43.6678 82.4541 43.4 82.6208 43.0919 82.7376C42.7838 82.8484 42.4571 82.9039 42.1123 82.9039Z" fill="black"/>
</g>
<defs>
<filter id="filter0_d_893_48927" x="0.3" y="0.3" width="62.9068" height="107.4" filterUnits="userSpaceOnUse" color-interpolation-filters="sRGB">
<feFlood flood-opacity="0" result="BackgroundImageFix"/>
<feColorMatrix in="SourceAlpha" type="matrix" values="0 0 0 0 0 0 0 0 0 0 0 0 0 0 0 0 0 0 127 0" result="hardAlpha"/>
<feOffset/>
<feGaussianBlur stdDeviation="2.85"/>
<feColorMatrix type="matrix" values="0 0 0 0 0 0 0 0 0 0 0 0 0 0 0 0 0 0 0.12 0"/>
<feBlend mode="normal" in2="BackgroundImageFix" result="effect1_dropShadow_893_48927"/>
<feBlend mode="normal" in="SourceGraphic" in2="effect1_dropShadow_893_48927" result="shape"/>
</filter>
</defs>
</svg>
