<svg width="49" height="48" viewBox="0 0 49 48" fill="none" xmlns="http://www.w3.org/2000/svg">
<path d="M8.75 30.375L3.78886 32.8556C3.05181 33.2241 3.05181 34.2759 3.78885 34.6444L24.0528 44.7764C24.3343 44.9172 24.6657 44.9172 24.9472 44.7764L45.2111 34.6444C45.9482 34.2759 45.9482 33.2241 45.2111 32.8556L40.25 30.375" stroke="#04004C" stroke-width="2" stroke-linejoin="round"/>
<path d="M2 22.5L24.0528 33.5264C24.3343 33.6672 24.6657 33.6672 24.9472 33.5264L47 22.5M2 22.5V26.382C2 26.7607 2.214 27.107 2.55279 27.2764L24.0528 38.0264C24.3343 38.1672 24.6657 38.1672 24.9472 38.0264L46.4472 27.2764C46.786 27.107 47 26.7607 47 26.382V22.5M2 22.5L10.25 18.375M47 22.5L38.75 18.375" stroke="#ED4B00" stroke-width="2" stroke-linejoin="round"/>
<path d="M24.0528 25.2764L3.78885 15.1444C3.05181 14.7759 3.05181 13.7241 3.78886 13.3556L24.0528 3.22361C24.3343 3.08284 24.6657 3.08284 24.9472 3.22361L45.2111 13.3556C45.9482 13.7241 45.9482 14.7759 45.2111 15.1444L24.9472 25.2764C24.6657 25.4172 24.3343 25.4172 24.0528 25.2764Z" stroke="#04004C" stroke-width="2" stroke-linejoin="round"/>
</svg>
