<svg width="49" height="48" viewBox="0 0 49 48" fill="none" xmlns="http://www.w3.org/2000/svg">
<path d="M39.7972 20.3994C39.5211 19.9211 38.9095 19.7572 38.4312 20.0334C37.9529 20.3095 37.789 20.9211 38.0652 21.3994L39.7972 20.3994ZM10.4183 11.0076L4.41933 14.4711L5.41933 16.2031L11.4183 12.7396L10.4183 11.0076ZM17.9686 41.9178L20.1195 45.6433L21.8515 44.6433L19.7006 40.9178L17.9686 41.9178ZM22.837 46.3715L29.917 42.2838L28.917 40.5518L21.837 44.6394L22.837 46.3715ZM39.0817 36.9926L45.0806 33.5291L44.0806 31.7971L38.0817 35.2605L39.0817 36.9926ZM31.5313 6.08239L29.3804 2.35692L27.6484 3.35692L29.7993 7.08239L31.5313 6.08239ZM26.6629 1.62875L19.5829 5.71636L20.5829 7.44841L27.6629 3.3608L26.6629 1.62875ZM3.69116 17.1886L9.78905 27.7505L11.5211 26.7505L5.42321 16.1886L3.69116 17.1886ZM45.8087 30.8116L39.7972 20.3994L38.0652 21.3994L44.0767 31.8116L45.8087 30.8116ZM29.3804 2.35692C28.8311 1.40541 27.6144 1.0794 26.6629 1.62875L27.6629 3.3608C27.6634 3.36051 27.663 3.36079 27.6618 3.36117C27.6607 3.36153 27.6596 3.3618 27.6584 3.36195C27.6563 3.36221 27.6551 3.36195 27.6548 3.36186C27.6545 3.36178 27.6534 3.36144 27.6517 3.36014C27.6507 3.35944 27.6498 3.35861 27.6491 3.35775C27.6483 3.35684 27.6481 3.35641 27.6484 3.35692L29.3804 2.35692ZM45.0806 33.5291C46.0321 32.9798 46.3581 31.7631 45.8087 30.8116L44.0767 31.8116C44.077 31.8121 44.0767 31.8117 44.0763 31.8106C44.076 31.8095 44.0757 31.8083 44.0755 31.8071C44.0753 31.805 44.0755 31.8039 44.0756 31.8035C44.0757 31.8032 44.076 31.8021 44.0773 31.8004C44.078 31.7995 44.0789 31.7986 44.0797 31.7978C44.0806 31.797 44.0811 31.7968 44.0806 31.7971L45.0806 33.5291ZM20.1195 45.6433C20.6688 46.5948 21.8855 46.9208 22.837 46.3715L21.837 44.6394C21.8365 44.6397 21.8369 44.6394 21.8381 44.639C21.8392 44.6387 21.8403 44.6384 21.8415 44.6383C21.8436 44.638 21.8448 44.6383 21.8451 44.6383C21.8454 44.6384 21.8465 44.6388 21.8482 44.6401C21.8491 44.6408 21.8501 44.6416 21.8508 44.6425C21.8516 44.6434 21.8518 44.6438 21.8515 44.6433L20.1195 45.6433ZM4.41933 14.4711C3.46782 15.0204 3.14181 16.2371 3.69116 17.1886L5.42321 16.1886C5.42292 16.1881 5.4232 16.1885 5.42358 16.1897C5.42395 16.1907 5.42421 16.1919 5.42436 16.1931C5.42462 16.1952 5.42436 16.1964 5.42428 16.1967C5.42419 16.197 5.42386 16.1981 5.42255 16.1998C5.42186 16.2007 5.42103 16.2016 5.42016 16.2024C5.41926 16.2032 5.41882 16.2034 5.41933 16.2031L4.41933 14.4711Z" fill="#04004C"/>
<path d="M10.6504 40.0637V7.41418C10.6504 6.86776 11.0933 6.4248 11.6398 6.4248H37.3636C37.91 6.4248 38.353 6.86777 38.353 7.41419V40.0637C38.353 40.6101 37.91 41.053 37.3636 41.053H11.6398C11.0934 41.053 10.6504 40.6101 10.6504 40.0637Z" stroke="#ED4B00" stroke-width="2" stroke-linejoin="round"/>
</svg>
