<svg width="48" height="48" viewBox="0 0 48 48" fill="none" xmlns="http://www.w3.org/2000/svg">
<path d="M23.0767 5.21993C23.4183 4.39864 24.5817 4.39864 24.9233 5.21993L30.1135 17.6987C30.2575 18.0449 30.5831 18.2815 30.9569 18.3114L44.4288 19.3915C45.3154 19.4625 45.6749 20.569 44.9994 21.1477L34.7353 29.94C34.4505 30.184 34.3261 30.5668 34.4131 30.9315L37.549 44.0777C37.7554 44.943 36.8141 45.6268 36.055 45.1632L24.5213 38.1184C24.2012 37.9229 23.7988 37.9229 23.4787 38.1184L11.945 45.1632C11.1859 45.6268 10.2446 44.943 10.451 44.0777L13.5869 30.9315C13.6739 30.5668 13.5495 30.184 13.2647 29.94L3.0006 21.1477C2.32506 20.569 2.68459 19.4625 3.57124 19.3915L17.0431 18.3114C17.4169 18.2815 17.7425 18.0449 17.8865 17.6987L23.0767 5.21993Z" stroke="#ED4B00" stroke-width="2"/>
</svg>
