<svg width="49" height="48" viewBox="0 0 49 48" fill="none" xmlns="http://www.w3.org/2000/svg">
<path d="M24.25 6L24.25 10" stroke="#ED4B00" stroke-width="2" stroke-linecap="round"/>
<path d="M38.0137 12L36.5137 13.5" stroke="#04004C" stroke-width="2" stroke-linecap="round"/>
<path d="M44.25 25.5L39.25 25.5" stroke="#ED4B00" stroke-width="2" stroke-linecap="round"/>
<path d="M38.0137 39.0291L36.5137 37.5291" stroke="#04004C" stroke-width="2" stroke-linecap="round"/>
<path d="M24.25 40.5L24.25 45.5" stroke="#ED4B00" stroke-width="2" stroke-linecap="round"/>
<path d="M11.9844 37.5291L10.4844 39.0291" stroke="#04004C" stroke-width="2" stroke-linecap="round"/>
<path d="M9.25 25.5L4.25 25.5" stroke="#ED4B00" stroke-width="2" stroke-linecap="round"/>
<path d="M12.25 13.0009L10.75 11.5009" stroke="#04004C" stroke-width="2" stroke-linecap="round"/>
<path d="M17.25 6V3C17.25 2.44772 17.6977 2 18.25 2H30.25C30.8023 2 31.25 2.44772 31.25 3V6" stroke="#04004C" stroke-width="2" stroke-linecap="round"/>
<circle cx="24.25" cy="25.5" r="20" stroke="#04004C" stroke-width="2"/>
<path d="M19.3088 20.75L24.25 26L31.3088 18.5" stroke="#ED4B00" stroke-width="2" stroke-linecap="round" stroke-linejoin="round"/>
</svg>
